<?xml version="1.0" encoding="UTF-8"?><svg id="a" xmlns="http://www.w3.org/2000/svg" xmlns:xlink="http://www.w3.org/1999/xlink" viewBox="0 0 384.48 187.69"><defs><style>.g{fill:#fdcda0;}.h{fill:url(#c);}.i{fill:#f57e20;}.j{fill:url(#b);stroke:#231f20;stroke-miterlimit:10;stroke-width:1.39px;}.k{fill:url(#f);}.l{fill:#f285b5;}.m,.n{opacity:.2;}.m,.o{fill:#231f20;}.n{fill:#fff;}.p{fill:url(#d);}.q{fill:url(#e);}.r{fill:#f99e1d;}.s{fill:#d1d3d4;}.t{fill:#f16024;}</style><linearGradient id="b" x1="36.38" y1="93.85" x2="360.46" y2="103.88" gradientTransform="matrix(1, 0, 0, 1, 0, 0)" gradientUnits="userSpaceOnUse"><stop offset="0" stop-color="#ec2326"/><stop offset="1" stop-color="#a8292b"/></linearGradient><linearGradient id="c" x1="152.82" y1="-6.33" x2="153.53" y2="100.05" gradientTransform="matrix(1, 0, 0, 1, 0, 0)" gradientUnits="userSpaceOnUse"><stop offset="0" stop-color="#75bc43"/><stop offset="1" stop-color="#178c44"/></linearGradient><linearGradient id="d" x1="104.96" y1="-6.01" x2="105.67" y2="100.37" xlink:href="#c"/><linearGradient id="e" x1="125.96" y1="-6.15" x2="126.67" y2="100.23" xlink:href="#c"/><linearGradient id="f" x1="135.08" y1="-6.12" x2="135.79" y2="99.96" xlink:href="#c"/></defs><ellipse class="m" cx="192.24" cy="173.32" rx="192.24" ry="14.36"/><g><path class="j" d="M199.1,91.5c2.17,51.1-29.36,81.02-75.02,72.74-31.81-5.77-70.42-27.8-78.51-69.42-6.19-31.86,10.61-66.9,77.5-66.81,67.41,.08,74.65,30.88,76.03,63.5Z"/><g><g><path class="h" d="M134.27,20.49s11.44,4.1,20.69,4.39c3.97,.12,10.06-.56,13.26-1.16,2.81-.52,5.44-1.57,5.44-1.57,0,0-.57,3.51-8.64,6.66-5.58,2.18-11.82,2.89-15.29,2.89l-17.33-1.74"/><path class="o" d="M134.39,20.16c0,.29,.15,.2,.24,.26,.16,.06,.71,.24,.89,.3,5.96,1.88,12.1,3.45,18.35,3.86,6.59,.15,13.45-.42,19.67-2.75l.63-.26c-.49,2.62-2.78,4.29-4.9,5.59-5.93,3.34-12.79,4.72-19.54,4.88-.02,0-17.33-1.74-17.35-1.74l.07-.69,17.33,1.74c6.41-.15,13.41-1.52,19.14-4.79,1.76-1.08,3.72-2.47,4.42-4.47l.47,.38c-6.36,2.25-13.25,2.74-19.95,2.57-6.61-.48-13.06-2.2-19.33-4.29-.11,0-.16-.16-.36,.06l.23-.66h0Z"/></g><g><path class="p" d="M124.57,19.43l-4.1,.25c-4.32,.14-7.71,.32-10.3,.51-5.99,.43-11.82,2.2-16.93,5.35-1.26,.77-2.5,1.63-3.68,2.56-6.79,5.37-6.31,8.89-6.31,8.89,0,0,2.21-1.77,4.75-3.09,2.89-1.5,8.48-4.05,12.35-4.99,7.7-1.86,12.33-1.33,12.33-1.33l14.52,.47"/><path class="o" d="M124.58,19.59c-4,.28-8,.47-11.99,.69-7.98,.15-15.88,2.69-22.22,7.58-2.85,2.34-6.42,5.2-6.79,9.09l-.56-.22c4.19-3.27,9.13-5.31,14.06-7.18,5.03-1.68,10.3-2.57,15.62-2.31-.11-.01,14.5,.48,14.49,.47l-.02,.7c-5.46-.02-17.03-1.06-22.29-.03-5.2,.7-10.08,2.6-14.78,4.87-2.37,1.1-4.6,2.42-6.65,4.02l-.5,.39c-.44-4.24,4.08-7.9,7.05-10.28,6.43-4.9,14.51-7.43,22.55-7.51,4-.19,8.01-.35,12-.6l.02,.32h0Z"/></g><g><path class="q" d="M119.8,23.61c-3.74,2.54-11.68,5.98-16.01,8.97-3.84,2.66-7.98,6.33-9.43,11.42s-1.03,6.95,2.12,2.99c2.67-3.36,8.34-8.09,14.3-11.21,5.22-2.73,7.58-4.27,9.56,3.12s2.16,9.25,3.21,14.07c2.75-5.36,4.1-9.62,4.31-17.93,.22-3.08,.42-5.06,7.01-2.72,0,0,16.09,5.63,24.18,12.82-1.57-6.16-6.86-12.81-15.74-17.87-2.78-1.56-3.98-2.06-5.83-3.22"/><path class="o" d="M119.8,23.61c-9.64,6.67-24.59,10.42-25.9,24.06-.04,.41-.02,.93,.11,1.11-.03,.11,.46-.09,.75-.38,5.02-6.04,11.33-10.91,18.44-14.27,3.4-1.81,5.62-1.09,6.86,2.63,1.73,5.28,2.7,10.73,3.84,16.14l-.65-.08c2.18-4.1,3.6-8.53,3.99-13.16,.66-6.04-1-10.76,7.31-7.8,8.75,3.26,17.5,7,24.74,13.04l-.57,.35c-.58-2.49-1.73-4.82-3.16-6.94-3.63-5.39-9.22-8.99-14.76-12.18-1.13-.63-2.25-1.3-3.31-2.05,2.27,1.25,4.69,2.2,6.93,3.55,6.98,4.12,13.22,10.5,15.29,18.53-7.29-6.33-16.39-10.31-25.38-13.63-1.65-.46-4.99-1.91-5.79,.35-.55,2.15-.29,4.63-.61,6.87-.4,4.69-1.86,9.27-4.07,13.41l-.44,.87c-.86-3.92-1.56-7.86-2.57-11.72-.85-2.44-1.39-8.78-4.86-8.35-3.36,.86-6.64,3.04-9.63,4.89-3.03,2.04-5.91,4.33-8.41,6.97-1.15,1.14-1.97,2.68-3.43,3.53-2.51,.87-.61-4.73-.33-5.79,3.97-11.01,16.37-14.56,25.6-19.92h0Z"/></g><g><path class="k" d="M124.08,26.23c.15-7.17,.5-9.01,2.72-14.68,2.51-6.41,9.7-9.45,12.77-10.62s10.99-.41,3.96,4.12c-4.76,3.07-9.47,4.09-9.16,21.58"/><path class="o" d="M124.08,26.23c-.48-5.79,.62-11.71,3.41-16.85,2.3-3.83,6.15-6.34,10.13-8.11,2.01-.99,4.26-1.52,6.5-1.17,1.88,.19,3.68,1.46,2,3.38-1.49,1.66-3.6,2.58-5.37,3.79-6.39,4.11-5.63,12.66-6.38,19.36-.52-5.71-.48-11.94,2.71-16.98,2.02-3.14,5.93-4.14,8.39-6.72,1.19-1.29-.21-1.82-1.47-1.98-2.09-.31-4.16,.17-6.05,1.08-3.86,1.66-7.64,4.08-9.87,7.71-2.85,5.02-3.64,10.79-4,16.49h0Z"/></g></g><path class="n" d="M71.16,72.01c-3.7,8.04-8.03,32.75,6.4,45.79,4.69,4.24,13.33,6.28,13.33,6.28,0,0,.6-5.1-3.63-13.33-6.04-11.73-5.35-23.22-3.71-31.33,1.26-6.23,4.62-12.68,7.29-17.06,4.25-6.99,2.74-10.07,2.74-10.07,0,0-15.3,4.26-22.4,19.72Z"/></g><g><path class="o" d="M39.49,123.23c1.79,.92,2.71,2.36,2.77,4.32,0,2.13-1.04,4.04-3.11,5.71-.75,.58-1.9,1.24-3.46,1.99-1.1,.52-2.13,1.5-3.11,2.94-.63,.98-1.51,2.18-2.64,3.59-1.12,1.41-2.15,2.75-3.07,4.02-.92,1.27-1.7,2.51-2.33,3.72-1.85,3.57-3,5.91-3.46,7,0,.06-.03,.13-.09,.22-.06,.09-.09,.16-.09,.22,.11,.69,.09,1.41-.09,2.16-.17,.75-.45,1.59-.82,2.51-.38,.92-.62,1.61-.73,2.08-.17,.63-.58,2.02-1.21,4.15-.23,.75-.46,2.16-.69,4.24-.29,2.31-.95,3.83-1.99,4.58-.17,.12-.35,.35-.52,.69-.17,.35-.36,.62-.56,.82-.2,.2-.51,.24-.91,.13-.35,.58-.95,.69-1.82,.35-.86-.35-1.47-.46-1.82-.35-1.04-1.09-1.64-1.82-1.82-2.16-.06-.12-.14-.45-.26-.99-.12-.55-.35-.91-.69-1.08,.11-.58,.03-1.43-.26-2.55-.29-1.12-.35-1.95-.17-2.46,0-.98-.03-1.47-.09-1.47-.17-1.15,.29-2.02,1.38-2.59,.29-.17,.52-.43,.69-.78,.35-.75,.99-1.89,1.95-3.42,.95-1.53,1.63-2.72,2.03-3.59,.29-.58,.58-.75,.86-.52,.23,.12,.37,.19,.43,.22,.06,.03,.09-.04,.09-.22s.03-.29,.09-.35c.29-.46,.58-.72,.86-.78,.17-.06,.33-.13,.48-.22,.14-.09,.24-.17,.3-.26,.06-.09,.13-.23,.22-.43,.09-.2,.13-.33,.13-.39,.63-1.15,1.53-2.54,2.68-4.15,.17-.23,.11-.46-.17-.69-.52-.46-1.02-.96-1.51-1.51-.49-.55-1.04-1.2-1.64-1.95-.6-.75-1.05-1.3-1.34-1.64-.86-.98-1.85-2.39-2.94-4.24-.46-.75-.95-1.27-1.47-1.56-.75-.46-1.46-.99-2.12-1.6-.66-.6-1.44-1.4-2.33-2.38-.89-.98-1.48-1.61-1.77-1.9-1.67-1.61-2.59-3.77-2.77-6.49,0-.29-.12-.86-.35-1.73-.23-.86-.29-1.56-.17-2.08,.11-.52,.37-.69,.78-.52,.63,.29,1.58,.63,2.85,1.04,1.27,.4,2.19,.72,2.77,.95,1.84,.75,3.34,2.02,4.5,3.8,.4,.69,.98,1.7,1.73,3.03,.75,1.33,1.33,2.31,1.73,2.94,1.56,2.37,3.63,4.21,6.23,5.53,.92,.52,1.61,1.04,2.08,1.56,.63,.63,1.02,.94,1.17,.91,.14-.03,.45-.42,.91-1.17,.52-.86,2.02-3.37,4.5-7.52,.06-.06,.17-.22,.35-.48s.29-.45,.35-.56c.06-.11,.13-.29,.22-.52,.09-.23,.13-.42,.13-.56s-.03-.33-.09-.56c-.06-.23-.17-.46-.35-.69-.06-.06,0-.35,.17-.87,.06-.17,.2-.61,.43-1.3,.23-.69,.39-1.2,.48-1.51,.09-.32,.17-.75,.26-1.3,.09-.55,.13-1.05,.13-1.51-.06-1.04,.37-1.67,1.3-1.9,.06,0,.13-.06,.22-.17,.09-.12,.19-.12,.3,0,.63,.23,1.66,.56,3.07,.99,1.41,.43,2.49,.85,3.24,1.25Z"/><path class="o" d="M73.56,154.19c-.23,.75-.26,1.36-.09,1.82,.17,.4,.17,.65,0,.73-.17,.09-.43-.01-.78-.3l-.17,.61c-.06,1.21-.45,2.65-1.17,4.32-.72,1.67-1.48,3.08-2.29,4.24-1.21,1.73-3,3.11-5.36,4.15-1.21,.52-1.99,.87-2.33,1.04-2.31,1.38-5.42,2.22-9.34,2.51-.12,0-.49-.01-1.12-.04-.63-.03-1.07-.06-1.3-.09-.23-.03-.56-.12-.99-.26-.43-.14-.82-.36-1.17-.65-2.13-1.5-3.52-3.14-4.15-4.93-.12-.4-.38-1.02-.78-1.86-.4-.83-.69-1.48-.86-1.95-.06-.23-.17-.62-.35-1.17s-.27-.92-.3-1.12c-.03-.2-.09-.58-.17-1.12-.09-.55-.07-.94,.04-1.17,0-.23-.09-.71-.26-1.43-.17-.72-.12-1.2,.17-1.43-.12-1.21,.19-2.82,.91-4.84,.72-2.02,1.14-3.23,1.25-3.63,.06-.35,.17-.78,.35-1.3,.17-.52,.3-.95,.39-1.3s.11-.76,.09-1.25c-.03-.49-.13-.94-.3-1.34,.23-.63,.33-1.47,.3-2.51-.03-1.04-.01-1.84,.04-2.42,.06-.69,.52-1.43,1.38-2.21s1.61-1.17,2.25-1.17c.11,0,.24,.07,.39,.22,.14,.14,.27,.22,.39,.22,.52,.06,1.08,.2,1.69,.43,.6,.23,1.22,.46,1.86,.69,.63,.23,1.21,.38,1.73,.43,.35,.06,.86,.4,1.56,1.04,.4,.4,.6,.32,.6-.26v-.69c.06-.35,.14-.55,.26-.6,.29,.12,.76,.03,1.43-.26,.66-.29,1.14-.26,1.43,.09,.29-.06,.59-.06,.91,0,.32,.06,.62,.14,.91,.26,.29,.12,.55,.22,.78,.3,.23,.09,.5,.22,.82,.39,.32,.17,.56,.29,.73,.35,2.82,1.33,4.76,2.85,5.79,4.58,.23,.4,.65,.99,1.25,1.77s1.05,1.4,1.34,1.86c.81,1.5,1.35,3.4,1.64,5.71,.06,.12,.2,.61,.43,1.47,.23,.86,.29,1.56,.17,2.08Zm-9.77,8.04c.11-.06,.26-.2,.43-.43,.17-.23,.3-.39,.39-.48,.09-.09,.22-.26,.39-.52,.17-.26,.27-.45,.3-.56,.03-.11,.1-.32,.22-.61,.11-.29,.16-.5,.13-.65-.03-.14-.04-.36-.04-.65,.29-.4,.46-.86,.52-1.38,.06-.52,.04-.98-.04-1.38-.09-.4-.07-.83,.04-1.3,0-1.9-.04-3.1-.13-3.59-.09-.49-.39-1.2-.91-2.12-1.15-2.25-2.59-3.52-4.32-3.8-2.08-.35-3.29-1.18-3.63-2.51-.12-.4-.29-.38-.52,.09-.23,.46-.55,.91-.95,1.34-.4,.43-.86,.89-1.38,1.38-.52,.49-.89,.91-1.12,1.25-1.04,1.15-2.16,1.82-3.37,1.99-.46,.06-.84,.22-1.12,.48-.29,.26-.55,.59-.78,.99-.23,.4-.43,.69-.61,.87,.06,.52-.03,1.3-.26,2.33-.23,1.04-.32,1.82-.26,2.33,.06,.58,.35,1.47,.86,2.68,.11,.29,.17,.78,.17,1.47s.09,1.21,.26,1.56c1.27,2.77,2.68,4.64,4.24,5.62,2.36,1.44,4.44,1.61,6.23,.52,1.73-1.04,3.49-2.68,5.27-4.93Z"/><path class="o" d="M110.74,171.83c.17,.12,.24,.4,.22,.87-.03,.46-.33,.69-.91,.69-.35,.06-.4,.35-.17,.87,.11,.4-.04,.82-.48,1.25-.43,.43-.62,.79-.56,1.08,0,.17-.23,.26-.69,.26h-1.9c-.86,0-1.53-.07-1.99-.22-.46-.14-.86-.4-1.21-.78-.35-.37-.72-.94-1.12-1.69-.29-.58-.61-1.25-.95-2.03-.35-.78-.69-1.53-1.04-2.25-.35-.72-.69-1.37-1.04-1.95-1.79-3.29-3.57-6.02-5.36-8.21-.29-.4-.89-1.09-1.82-2.08-.92-.98-1.66-1.86-2.21-2.64-.55-.78-.97-1.6-1.25-2.46-.23-.58-.49-.52-.78,.17-.75,1.56-1.87,2.16-3.37,1.82-.46-.06-.58,.12-.35,.52,.11,.17,.24,.52,.39,1.04,.14,.52,.27,.89,.39,1.12,.4,.52,.58,1.04,.52,1.56-.06,.4-.06,.63,0,.69,.35,.58,.62,1.27,.82,2.08,.2,.81,.33,1.56,.39,2.25,.06,.69,.17,1.44,.35,2.25,.17,.81,.46,1.5,.86,2.08,.11,.23,.19,.61,.22,1.12,.03,.52,.1,.92,.22,1.21,.46,.86,.23,1.38-.69,1.56-.17,.06-.27,.17-.3,.35-.03,.17-.07,.4-.13,.69-.06,.29-.14,.52-.26,.69-.98,1.33-2.39,1.84-4.24,1.56-1.67-.23-2.74-1.15-3.2-2.77-.06-.17-.23-.53-.52-1.08-.29-.55-.43-.96-.43-1.25,0-.46-.12-1.25-.35-2.38-.23-1.12-.29-2-.17-2.64v-.73c0-.32,.01-.58,.04-.78,.03-.2,.1-.43,.22-.69,.11-.26,.29-.48,.52-.65,.46-.46,.66-1.27,.61-2.42-.06-.69,.03-1.7,.26-3.03,.23-1.33,.35-2.3,.35-2.94v-1.08c0-.14-.03-.32-.09-.52-.06-.2-.17-.36-.35-.48-.12-.11-.16-.32-.13-.6,.03-.29,.16-.55,.39-.78,.23-.17,.26-.55,.09-1.12,0-.06-.04-.13-.13-.22-.09-.09-.16-.17-.22-.26-.06-.09-.1-.17-.13-.26-.03-.09,.01-.19,.13-.3,.29-.35,.75-.58,1.38-.69,.81-.17,1.27-.12,1.38,.17,.06,.12,.01,.2-.13,.26-.15,.06-.32,.1-.52,.13-.2,.03-.33,.1-.39,.22,0,.06-.06,.17-.17,.35-.23,.29-.23,.52,0,.69,.75,.46,1.18,.35,1.3-.35,.06-.35,.29-.52,.69-.52,.06,0,.17,.09,.35,.26,.17,.17,.35,.17,.52,0,.29-.17,.61-.36,.95-.56,.35-.2,.73-.4,1.17-.61,.43-.2,.73-.36,.91-.48,.58-.29,.69-.72,.35-1.3-.29-.46-.43-.89-.43-1.3,0-.52,.04-.82,.13-.91,.09-.09,.39,.01,.91,.3,.11,.06,.35,.09,.69,.09s.58,.06,.69,.17l.09,.09c.06,.23,.2,.26,.43,.09,.29-.17,.56-.4,.82-.69,.26-.29,.48-.55,.65-.78,.17-.23,.37-.55,.6-.95,.23-.4,.39-.69,.48-.86,.09-.17,.24-.5,.48-1,.23-.49,.37-.79,.43-.91,.23-.46,.23-.78,0-.95-.23-.29-.38-.58-.43-.87-.06-.29-.06-.53,0-.74,.06-.2,.16-.48,.3-.82,.14-.35,.22-.58,.22-.69,.35-1.04,.49-1.79,.43-2.25-.12-.87,.26-2.19,1.12-3.98,.23-.4,.58-.52,1.04-.35,.23,.06,.99,.29,2.29,.69,1.3,.4,2.29,.72,2.98,.95,1.38,.46,2.38,1.3,2.98,2.51s.71,2.54,.3,3.98c-.17,.52-.66,1.47-1.47,2.85-.17,.23-.4,.52-.69,.86-.29,.35-.58,.68-.86,1-.29,.32-.52,.62-.69,.91-.29,.4-.84,.79-1.64,1.17-.81,.38-1.27,.59-1.38,.65-.06,0-.35,.13-.86,.39-.52,.26-.86,.53-1.04,.82-.06,0-.22,.13-.48,.39-.26,.26-.42,.48-.48,.65-.06,.06-.03,.13,.09,.22,.11,.09,.24,.2,.39,.35,.14,.15,.24,.25,.3,.3,1.21,1.38,2.08,3.26,2.59,5.62,.11,.46,.29,1.11,.52,1.95,.23,.84,.37,1.37,.43,1.6,.06,.23,.03,.38-.09,.43-.17,.06-.27,.06-.3,0-.03-.06-.04-.17-.04-.35,0-.12-.03-.22-.09-.3-.06-.09-.13-.17-.22-.26-.09-.09-.16-.16-.22-.22-.06-.06-.07-.14-.04-.26,.03-.11,.03-.2,0-.26-.03-.06-.13-.09-.3-.09-.29,.12-.35,.43-.17,.95,.17,.35,.49,1.15,.95,2.42,.46,1.27,.86,2.22,1.21,2.85,.92,1.79,1.9,3.11,2.94,3.98,.46,.35,.72,.55,.78,.6,.4,.12,.69,.06,.86-.17,.17-.11,.17-.23,0-.35-.17-.12-.26-.23-.26-.35v-.43c.11-.23,.23-.23,.35,0,.35,.4,.75,.82,1.21,1.25,.46,.43,.88,.79,1.25,1.08,.37,.29,.82,.63,1.34,1.04,.52,.4,.95,.78,1.3,1.12,.29,.23,.5,.49,.65,.78,.14,.29,.27,.62,.39,1,.11,.38,.23,.68,.35,.91Zm-31.82-50.41c-.23-.4-.32-.96-.26-1.69,.06-.72,.03-1.25-.09-1.6-.17-.4-.35-1.67-.52-3.8,0-.52,.2-.95,.61-1.3,.11-.23,.29-.23,.52,0,.23,.23,.37,.38,.43,.43,2.48,.58,4.24,1.1,5.27,1.56,1.96,.86,3.03,2.22,3.2,4.06,0,.12,.09,.55,.26,1.3,.17,.75,.2,1.33,.09,1.73-.75,2.42-1.5,4.18-2.25,5.27-1.04,1.44-1.73,3.11-2.08,5.02-.06,.17-.19,.45-.39,.82-.2,.38-.27,.71-.22,.99,.06,.17,0,.36-.17,.56-.17,.2-.32,.3-.43,.3-.17,0-.27-.06-.3-.17-.03-.12-.04-.26-.04-.43v-.61l.35-1.82c.11-.29,.19-.58,.22-.86,.03-.29,.03-.66,0-1.12-.03-.46-.04-.78-.04-.95l-.26-.35c-.17,.23-.26,.38-.26,.43-.69,2.25-1.04,3.66-1.04,4.24,.06,.06,.09,.12,.09,.17,.06,.12,.06,.23,0,.35-.06,.12-.17,.14-.35,.09-.06,0-.09-.06-.09-.17-.06-.23-.12-.37-.17-.43-.63-.69-.95-1.12-.95-1.3,.11-.81,.03-2-.26-3.59-.29-1.58-.35-2.81-.17-3.67-.35-.4-.51-.98-.48-1.73,.03-.75-.04-1.33-.22-1.73Zm3.46,39.95c.11-.06,.19-.16,.22-.3,.03-.14,.03-.3,0-.48-.03-.17-.04-.29-.04-.35v-3.89c.06-.35,.01-.58-.13-.69-.14-.11-.36-.17-.65-.17-.4,0-.65,.12-.73,.35-.09,.23-.07,.43,.04,.61,.29,.52,.46,1.53,.52,3.03v.69c0,.12,.26,.52,.78,1.21Z"/><path class="o" d="M163.83,123.32c.06,.12,.03,.32-.09,.61-.12,.29-.26,.49-.43,.61-.23,.12-.33,.39-.3,.82,.03,.43-.04,.65-.22,.65-.58,.17-.86,.55-.86,1.12,.06,.17,.06,.29,0,.35-.06,.06-.26,.12-.61,.17-1.15,.29-2.15,.43-2.98,.43s-2.03-.14-3.59-.43c-.17-.06-.66-.06-1.47,0-1.56,0-3.75-.32-6.57-.95-.46-.12-1.3-.27-2.51-.48s-2.13-.39-2.77-.56c-.52-.17-.78,0-.78,.52,.06,.81-.01,1.66-.22,2.55-.2,.89-.45,1.83-.73,2.81-.29,.98-.46,1.82-.52,2.51-.06,.23-.23,.46-.52,.69-.29,.23-.43,.43-.43,.61,.06,.46-.03,1.11-.26,1.95-.23,.84-.35,1.43-.35,1.77,.11,2.48,.11,4.24,0,5.28-.17,2.02,.23,3.98,1.21,5.88,.29,.58,.53,1.2,.74,1.86,.2,.66,.4,1.41,.6,2.25,.2,.84,.36,1.46,.48,1.86,.86,3.23,1.18,5.91,.95,8.04,0,.29,.1,.64,.3,1.04,.2,.4,.3,.72,.3,.95,0,1.5-.06,2.62-.17,3.37-.12,.75-.43,1.64-.95,2.68-.69,1.38-1.61,2.19-2.77,2.42-1.5,.29-2.71,.03-3.63-.78-1.67-1.5-2.48-3.06-2.42-4.67,0-.23-.12-.58-.35-1.04-.23-.46-.32-.87-.26-1.21,.06-.17,.07-.37,.04-.61-.03-.23-.09-.49-.17-.78-.09-.29-.16-.49-.22-.61-.06-.4-.09-2.13-.09-5.19v-1.99c-.06-1.21,.23-3.08,.86-5.62,.52-2.19,.75-3.69,.69-4.5-.17-1.96-.17-3.69,0-5.19,.06-.4-.03-.99-.26-1.77-.23-.78-.35-1.34-.35-1.69,.17-1.67,.17-2.82,0-3.46-.29-1.21-.43-1.99-.43-2.33-.06-.11-.07-.35-.04-.69,.03-.35,.03-.65,0-.91-.03-.26-.13-.5-.3-.74-.23-.46-.26-1.27-.09-2.42,0-.17-.03-.33-.09-.48-.06-.14-.13-.27-.22-.39-.09-.12-.16-.26-.22-.43-.06-.17-.09-.32-.09-.43,.11-.58,.11-1.15,0-1.73-.06-.29-.17-.35-.35-.17-.12,.06-.2,.09-.26,.09-.29-.06-.56-.04-.82,.04-.26,.09-.52,.19-.78,.3-.26,.12-.51,.25-.74,.39-.23,.14-.48,.29-.73,.43-.26,.14-.51,.25-.73,.3-.64,.23-1.54,.5-2.72,.82-1.18,.32-2.03,.56-2.55,.74-1.33,.4-3.06,.4-5.19,0-1.38-.23-2.36-1.07-2.94-2.51-.69-1.61-1.01-2.8-.95-3.54,0-.35-.12-.87-.35-1.56-.23-.69-.32-1.27-.26-1.73,.11-.81,.46-1.3,1.04-1.47,.17-.06,.46-.17,.86-.35,.4-.17,.72-.29,.95-.35,.23-.06,.53-.13,.91-.22,.37-.09,.74-.1,1.08-.04h3.37c.52-.06,.78,.14,.78,.6,0,.35,.26,.46,.78,.35,.46-.12,.95-.12,1.47,0,.52,.12,1.05,.25,1.6,.39,.55,.14,1.02,.19,1.43,.13,.35,0,.58,.09,.69,.26,.29,.46,.83,.74,1.64,.82,.81,.09,1.33,.22,1.56,.39,.4,.29,.66,.09,.78-.61,.11-.86,.52-1.15,1.21-.86,.69,.35,1.71,.72,3.07,1.12,1.35,.4,2.29,.72,2.81,.95,.63,.12,1.02,.25,1.17,.39,.14,.14,.19,.36,.13,.65,0,.12,.03,.17,.09,.17,1.96,.23,3.29,.17,3.98-.17,.52-.29,.52-.49,0-.6-.29-.06-.55-.2-.78-.43-.06-.06-.12-.14-.17-.26l-.09-.17c.23-.11,.37-.17,.43-.17,.29,.06,.72-.03,1.3-.26,.58-.23,1.07-.32,1.47-.26,.58,.06,1.24-.29,1.99-1.04,1.38-1.33,2.74-1.73,4.06-1.21,.58,.23,.95,.32,1.12,.26,1.5-.06,2.71,.23,3.63,.87,.4,.23,1.21,.43,2.42,.61,1.67,.17,3.4,1.21,5.19,3.11-.17,.46,0,1.15,.52,2.08Zm-28.1,21.19v-6.66c-.12-.46-.23-.69-.35-.69-.35,0-.55,.2-.61,.61-.06,.12-.09,.61-.09,1.47v6.23c-.06,.69,.03,1.69,.26,2.98,.23,1.3,.32,2.29,.26,2.98,0,.29,.12,.4,.35,.35,.11,0,.17-.12,.17-.35v-6.92Z"/><path class="o" d="M190.9,154.19c-.23,.75-.26,1.36-.09,1.82,.17,.4,.17,.65,0,.73-.17,.09-.43-.01-.78-.3l-.17,.61c-.06,1.21-.45,2.65-1.17,4.32-.72,1.67-1.48,3.08-2.29,4.24-1.21,1.73-3,3.11-5.36,4.15-1.21,.52-1.99,.87-2.33,1.04-2.31,1.38-5.42,2.22-9.34,2.51-.12,0-.49-.01-1.12-.04-.63-.03-1.07-.06-1.3-.09-.23-.03-.56-.12-.99-.26-.43-.14-.82-.36-1.17-.65-2.13-1.5-3.52-3.14-4.15-4.93-.12-.4-.38-1.02-.78-1.86-.4-.83-.69-1.48-.86-1.95-.06-.23-.17-.62-.35-1.17s-.27-.92-.3-1.12c-.03-.2-.09-.58-.17-1.12-.09-.55-.07-.94,.04-1.17,0-.23-.09-.71-.26-1.43-.17-.72-.12-1.2,.17-1.43-.12-1.21,.19-2.82,.91-4.84,.72-2.02,1.14-3.23,1.25-3.63,.06-.35,.17-.78,.35-1.3,.17-.52,.3-.95,.39-1.3s.11-.76,.09-1.25c-.03-.49-.13-.94-.3-1.34,.23-.63,.33-1.47,.3-2.51-.03-1.04-.01-1.84,.04-2.42,.06-.69,.52-1.43,1.38-2.21s1.61-1.17,2.25-1.17c.11,0,.24,.07,.39,.22,.14,.14,.27,.22,.39,.22,.52,.06,1.08,.2,1.69,.43,.6,.23,1.22,.46,1.86,.69,.63,.23,1.21,.38,1.73,.43,.35,.06,.86,.4,1.56,1.04,.4,.4,.6,.32,.6-.26v-.69c.06-.35,.14-.55,.26-.6,.29,.12,.76,.03,1.43-.26,.66-.29,1.14-.26,1.43,.09,.29-.06,.59-.06,.91,0,.32,.06,.62,.14,.91,.26,.29,.12,.55,.22,.78,.3,.23,.09,.5,.22,.82,.39,.32,.17,.56,.29,.73,.35,2.82,1.33,4.76,2.85,5.79,4.58,.23,.4,.65,.99,1.25,1.77s1.05,1.4,1.34,1.86c.81,1.5,1.35,3.4,1.64,5.71,.06,.12,.2,.61,.43,1.47,.23,.86,.29,1.56,.17,2.08Zm-9.77,8.04c.11-.06,.26-.2,.43-.43,.17-.23,.3-.39,.39-.48,.09-.09,.22-.26,.39-.52,.17-.26,.27-.45,.3-.56,.03-.11,.1-.32,.22-.61,.11-.29,.16-.5,.13-.65-.03-.14-.04-.36-.04-.65,.29-.4,.46-.86,.52-1.38,.06-.52,.04-.98-.04-1.38-.09-.4-.07-.83,.04-1.3,0-1.9-.04-3.1-.13-3.59-.09-.49-.39-1.2-.91-2.12-1.15-2.25-2.59-3.52-4.32-3.8-2.08-.35-3.29-1.18-3.63-2.51-.12-.4-.29-.38-.52,.09-.23,.46-.55,.91-.95,1.34-.4,.43-.86,.89-1.38,1.38-.52,.49-.89,.91-1.12,1.25-1.04,1.15-2.16,1.82-3.37,1.99-.46,.06-.84,.22-1.12,.48-.29,.26-.55,.59-.78,.99-.23,.4-.43,.69-.61,.87,.06,.52-.03,1.3-.26,2.33-.23,1.04-.32,1.82-.26,2.33,.06,.58,.35,1.47,.86,2.68,.11,.29,.17,.78,.17,1.47s.09,1.21,.26,1.56c1.27,2.77,2.68,4.64,4.24,5.62,2.36,1.44,4.44,1.61,6.23,.52,1.73-1.04,3.49-2.68,5.27-4.93Z"/><path class="o" d="M250.74,169.75c.52,1.5,.14,2.88-1.12,4.15-.4,.4-.71,.69-.91,.86-.2,.17-.42,.33-.65,.48-.23,.14-.43,.27-.61,.39-.35,.4-.84,.45-1.47,.13-.64-.32-1.04-.45-1.21-.39-.35,.06-.66,0-.95-.17-.29-.17-.48-.3-.56-.39s-.3-.36-.65-.82c-1.21-1.61-1.76-3.2-1.64-4.76,0-.29-.12-.69-.35-1.21-.23-.52-.32-.95-.26-1.3,.06-.29,.06-1.09,0-2.42,0-.35,.14-.86,.43-1.56,.75-1.73,1.12-3.26,1.12-4.58-.06-.75,.03-1.89,.26-3.42,.23-1.53,.32-2.69,.26-3.5,0-.29-.1-.78-.3-1.47-.2-.69-.27-1.21-.22-1.56,.06-.35,.04-.69-.04-1.04-.09-.35-.19-.69-.3-1.04-.12-.35-.17-.66-.17-.95,0-.23-.04-.36-.13-.39-.09-.03-.22,.01-.39,.13-2.13,.92-3.63,2.36-4.5,4.32-.92,2.08-1.93,3.78-3.03,5.1-.4,.46-.71,.98-.91,1.56-.2,.58-.39,1.25-.56,2.03-.17,.78-.29,1.31-.35,1.6-.12,.17-.16,.39-.13,.65,.03,.26,.07,.46,.13,.61,.06,.14,.13,.36,.22,.65,.09,.29,.13,.52,.13,.69,1.15,4.32,.69,8.19-1.38,11.59-.58,1.04-1.41,1.59-2.51,1.64-1.79,.12-3.14,.4-4.06,.86-.46,.23-1.31,.14-2.55-.26-1.24-.4-1.98-.81-2.21-1.21-.12-.23-.35-.62-.69-1.17s-.61-.98-.78-1.3c-.17-.32-.36-.72-.56-1.21-.2-.49-.35-.98-.43-1.47-.09-.49-.13-.96-.13-1.43-.35-.52-.51-1.33-.48-2.42,.03-1.09-.13-1.9-.48-2.42-.06,0-.06-.14,0-.43-.06-.4,.03-.92,.26-1.56,.23-.63,.32-1.12,.26-1.47-.12-1.38,0-2.42,.35-3.11,.17-.35,.29-.96,.35-1.86,.06-.89,.12-1.43,.17-1.6,.06-.52,.1-1.5,.13-2.94,.03-1.44,.16-2.54,.39-3.29,.23-.63,.17-1.07-.17-1.3-.06-.06-.35,.17-.87,.69-2.19,2.13-3.72,3.98-4.58,5.53-1.15,2.02-2.36,4.9-3.63,8.65-.06,.29-.1,.61-.13,.95-.03,.35-.04,.72-.04,1.12v.78c.17,1.73-.29,4.29-1.38,7.7-.17,.69-.52,1.3-1.04,1.82s-.92,.85-1.21,.99c-.29,.14-.89,.45-1.82,.91-.35,.17-.71,.27-1.08,.3-.38,.03-.71,.01-.99-.04-.29-.06-.64-.13-1.04-.22-.4-.09-.72-.13-.95-.13s-.46-.09-.69-.26c-.23-.17-.45-.39-.65-.65-.2-.26-.35-.5-.43-.74-.09-.23-.22-.56-.39-.99s-.33-.82-.48-1.17c-.14-.35-.25-.72-.3-1.12-.12-.75-.26-2.33-.43-4.76-.06-.35-.04-.71,.04-1.08,.09-.38,.14-.59,.17-.65,.03-.06,.19-.32,.48-.78,.86-1.5,1.3-2.65,1.3-3.46,0-.75,.06-1.61,.17-2.59,.11-.98,.23-1.96,.35-2.94,.11-.98,.14-1.87,.09-2.68-.06-.52-.16-1.27-.3-2.25-.14-.98-.22-1.64-.22-1.99-.06-.29-.07-.71-.04-1.25,.03-.55,.01-1.05-.04-1.51-.06-.46-.2-.87-.43-1.21v-.26c.06-.98-.04-2.46-.3-4.45-.26-1.99-.33-3.5-.22-4.54l.52-1.73c.11-.52,.4-.63,.86-.35,.58,.4,1.56,.76,2.94,1.08,1.38,.32,2.39,.74,3.03,1.25,.69,.06,1.27,.33,1.73,.82,.46,.49,.75,.94,.86,1.34,.11,.4,.26,.98,.43,1.73,.46,2.94-.26,5.62-2.16,8.04-.35,.4-.92,1.38-1.73,2.94-.58,1.04-.92,2.31-1.04,3.8v4.76c0,.17,.01,.35,.04,.52,.03,.17,.07,.33,.13,.48,.06,.15,.11,.32,.17,.52,.06,.2,.11,.36,.17,.48,.12,.52,.33,.82,.65,.91,.32,.09,.62-.07,.91-.48,.17-.23,.37-.58,.61-1.04,.23-.46,.4-.78,.52-.95l.09-.09c.17-.4,.37-.52,.61-.35,.06,.06,.1,.17,.13,.35,.03,.17,.01,.29-.04,.35-.12,.23-.22,.49-.3,.78-.09,.29-.17,.58-.26,.87-.09,.29-.22,.55-.39,.78-.06,0-.07,.09-.04,.26,.03,.17,.07,.29,.13,.35,.11,0,.29-.09,.52-.26,.35-.12,.58-.12,.69,0,.06,.12-.03,.29-.26,.52-.06,.4-.09,.72-.09,.95l.26,.35c.17-.17,.26-.29,.26-.35,.17-.4,.94-1.99,2.29-4.76,1.35-2.77,2.41-4.87,3.16-6.31,.23-.52,.55-1.07,.95-1.64,0-.06,.06-.14,.17-.26l.26-.26c.06-.06,.09-.14,.09-.26s-.06-.23-.17-.35c-.12-.06-.22-.06-.3,0-.09,.06-.19,.17-.3,.35-.12,.17-.2,.26-.26,.26-.17,.17-.29,.2-.35,.09-.12-.17-.14-.32-.09-.43,.06-.17,.14-.38,.26-.61,.12-.23,.25-.45,.39-.65,.14-.2,.24-.39,.3-.56,.06-.12,.03-.26-.09-.43-.06-.11-.17-.09-.35,.09l-.52,.52c-.23,.23-.4,.4-.52,.52-.17,.17-.3,.2-.39,.09-.09-.12-.13-.26-.13-.43,0-.4,.03-.63,.09-.69,.35-.52,.81-1.41,1.38-2.68,.58-1.27,1.12-2.19,1.64-2.77,.17-.23,.3-.61,.39-1.12,.09-.52,.25-.86,.48-1.04,0-.46-.03-.78-.09-.95-.06-.17-.01-.49,.13-.95,.14-.46,.24-.76,.3-.91,.06-.14,.17-.43,.35-.86s.29-.71,.35-.82c.75-1.79,1.07-3.14,.95-4.06,0-.17,.04-.29,.13-.35,.09-.06,.22-.09,.39-.09,.23,.06,.35,.12,.35,.17,.06,.64,.38,.78,.95,.43,.06-.06,.09-.01,.09,.13s.03,.29,.09,.43c.06,.14,.17,.22,.35,.22,.06,0,.17-.06,.35-.17,.17-.12,.32-.2,.43-.26,.23,0,.46,.03,.69,.09,.23,.06,.48,.16,.74,.3,.26,.14,.45,.25,.56,.3,.23,.06,.55,.17,.95,.35,.4,.17,.78,.3,1.12,.39,.35,.09,.69,.16,1.04,.22,.81,0,1.41,.84,1.82,2.51,0,.12,.17,.35,.52,.69,.35,.4,.46,.69,.35,.86-.29,.29-.46,.62-.52,.99-.06,.38-.06,.85,0,1.43,.06,.58,.09,.92,.09,1.04,0,.92-.26,1.82-.78,2.68-1.1,2.08-1.79,3.26-2.08,3.54-.23,.23-.4,.48-.52,.74-.12,.26-.22,.56-.3,.91-.09,.35-.16,.58-.22,.69-.35,.75-.58,2.26-.69,4.54-.12,2.28-.09,3.73,.09,4.37,.06,.29,.17,.65,.35,1.08s.32,.84,.43,1.21c.12,.38,.2,.73,.26,1.08,0,.12,.06,.19,.17,.22,.12,.03,.2-.01,.26-.13,.11-.4,.4-.58,.86-.52,.46,.06,.75-.03,.87-.26,.11-.35,.36-.72,.73-1.12,.38-.4,.59-.66,.65-.78,.23-.35,.55-1.07,.95-2.16,1.67-4.38,3.14-7.72,4.41-10.03,.35-.58,.69-1.46,1.04-2.64s.63-2,.86-2.46c.12-.17,.12-.35,0-.52,0-.12-.07-.32-.22-.61-.14-.29-.25-.5-.3-.65-.06-.14-.07-.33-.04-.56,.03-.23,.13-.43,.3-.61,.17-.23,.27-.63,.3-1.21,.03-.58,.16-1.01,.39-1.3,.17-.12,.26-.32,.26-.61s-.03-.65-.09-1.08c-.06-.43-.09-.73-.09-.91,0-.29,.06-.43,.17-.43s.23,.14,.35,.43c.23,.52,.72,.81,1.47,.87,.17,0,.45-.09,.82-.26s.68-.23,.91-.17c.12,0,.17-.11,.17-.35,.06-.58,.12-.91,.17-.99,.06-.09,.32-.13,.78-.13,.52-.06,1.27,.14,2.25,.61,.46,.23,1.15,.5,2.08,.82,.92,.32,1.5,.5,1.73,.56,.87,.35,1.56,1.1,2.08,2.25,.58,1.21,1.04,2.74,1.38,4.58,.29,1.56-.26,3.58-1.64,6.05-.58,1.04-.84,1.99-.78,2.85,0,.4-.01,1.44-.04,3.11-.03,1.67-.01,2.71,.04,3.11,.29,2.54,.83,4.93,1.64,7.18,.23,.75,.59,1.89,1.08,3.42,.49,1.53,.88,2.67,1.17,3.42Zm-50.41-15.05c.23-.81,.35-1.96,.35-3.46s.03-2.36,.09-2.59c0-.23-.06-.37-.17-.43-.17,0-.29,.09-.35,.26v.17c-.29,.69-.6,2.13-.95,4.32-.06,.17-.09,1.41-.09,3.72s.03,3.75,.09,4.5l.17,.35,.43-.35c.23-.17,.35-.63,.35-1.38,0-.35-.03-.88-.09-1.6-.06-.72-.07-1.37-.04-1.95,.03-.58,.1-1.09,.22-1.56Zm19.54,2.77c.17,0,.24-.42,.22-1.25-.03-.83-.04-1.28-.04-1.34,0-.23,.11-.78,.35-1.64,.23-.86,.29-1.56,.17-2.08-.06-.17-.07-.36-.04-.56,.03-.2,.04-.39,.04-.56s-.06-.26-.17-.26c-.23,.06-.33,.25-.3,.56,.03,.32,.01,.56-.04,.73-.23,.4-.38,.84-.43,1.3-.06,.46-.07,.88-.04,1.25,.03,.38,.01,.79-.04,1.25,.06,.17,.06,.61,0,1.3-.06,.69,.06,1.12,.35,1.3Zm12.88-7.87c.23-.4,.26-.66,.09-.78-.23-.17-.46-.03-.69,.43-1.61,3.11-2.59,5.1-2.94,5.97-.81,2.08-1.21,3.46-1.21,4.15,0,.35,.09,.55,.26,.61,.06,.06,.16-.01,.3-.22,.14-.2,.25-.22,.3-.04,.06,.06,.09,.46,.09,1.21v.39c0,.2,.03,.33,.09,.39l.26,.26,.17-.35c.63-2.36,1.24-4.09,1.82-5.19,.11-.17,.35-.89,.69-2.16,.06-.35-.03-.55-.26-.61-.06-.06-.12-.03-.17,.09l-.17,.17c-.29,.29-.43,.58-.43,.87l-.26,.26-.17-.43c-.06-.35,.03-.72,.26-1.12,.29-.46,.65-1.14,1.08-2.03,.43-.89,.74-1.51,.91-1.86Zm12.54,9.94c.06-.06,.09-.4,.09-1.04v-7.44c.06-.4-.03-.98-.26-1.73-.23-.75-.32-1.33-.26-1.73l-.26-.43-.26,.35c.12,.81,.07,1.98-.13,3.5-.2,1.53-.33,2.44-.39,2.72,0,.58,.11,1.5,.35,2.77,.23,1.27,.32,2.25,.26,2.94,0,.12-.03,.33-.09,.65-.06,.32-.09,.55-.09,.69s.03,.33,.09,.56c.06,.23,.17,.43,.35,.61,.06-.17,.1-.37,.13-.61,.03-.23,.06-.45,.09-.65,.03-.2,.07-.4,.13-.61,.06-.2,.14-.39,.26-.56Z"/><path class="o" d="M290.17,165.6c.23,.4,.39,.71,.48,.91,.09,.2,.17,.48,.26,.82s.09,.68,0,.99c-.09,.32-.25,.65-.48,1-.12,.17-.14,.36-.09,.56,.06,.2,.07,.42,.04,.65-.03,.23-.16,.38-.39,.43-.4,.06-.59,.27-.56,.65,.03,.38,.01,.59-.04,.65-.23,.06-.43,.13-.6,.22-.17,.09-.32,.23-.43,.43-.12,.2-.2,.36-.26,.48-.06,.12-.14,.3-.26,.56-.12,.26-.17,.45-.17,.56-.17,.35-.43,.49-.78,.43-.64-.06-1.59,.04-2.85,.3-1.27,.26-2.25,.33-2.94,.22-.98-.06-2.44,.06-4.37,.35-1.93,.29-3.33,.35-4.19,.17h-4.32c-.46,0-1.87-.2-4.24-.61-.92-.17-2.42-.95-4.5-2.33-.63-.46-1.18-1.01-1.64-1.64-.46-.63-.95-1.46-1.47-2.46-.52-1.01-.87-1.69-1.04-2.03,0-.52-.14-1.56-.43-3.11-.29-1.56-.32-2.77-.09-3.63,.23-1.09,.72-2.05,1.47-2.85,.12-.17,.43-.49,.95-.95,.52-.46,.89-.83,1.12-1.12,1.44-1.73,3.43-2.91,5.97-3.55,.17,0,.36-.07,.56-.22,.2-.14,.4-.25,.6-.3,.2-.06,.39-.06,.56,0,.12,.06,.24,.07,.39,.04,.14-.03,.27-.04,.39-.04s.17,.06,.17,.17c0,.17-.04,.27-.13,.3-.09,.03-.22,.03-.39,0-.17-.03-.29-.01-.35,.04-1.44,.63-2.85,1.44-4.24,2.42l-.17,.35,.43,.17c.12,0,.26-.06,.43-.17,1.27-.87,3.26-1.44,5.97-1.73,.23-.06,.56-.16,.99-.3,.43-.14,.76-.25,.99-.3,.23-.06,.58-.06,1.04,0,.17,.06,.29,.03,.35-.09,.17-.4,.39-.71,.65-.91,.26-.2,.53-.32,.82-.35,.29-.03,.61-.06,.95-.09,.35-.03,.69-.04,1.04-.04h.17c.23,0,.36-.01,.39-.04,.03-.03-.04-.22-.22-.56-.12-.12-.03-.23,.26-.35h.17c.63-.06,1.76,.2,3.37,.78,.46,.17,.75,.22,.87,.13,.11-.09,.14-.36,.09-.82-.23-1.61-.62-2.91-1.17-3.89-.55-.98-1.49-1.7-2.81-2.16-.17-.06-.52-.24-1.04-.56-.52-.32-.95-.48-1.3-.48-1.15,0-2.22,.26-3.2,.78-2.48,1.27-4.53,1.85-6.14,1.73-2.42-.11-3.95-1.18-4.58-3.2-.86-2.88-1.21-5.19-1.04-6.92,0-.35,.06-.58,.17-.69,.29-.4,.91-.71,1.86-.91s1.6-.13,1.95,.22,.95,.55,1.82,.61c.92,.12,2.25,.06,3.98-.17,1.73-.23,2.97-.35,3.72-.35l.35-.26c-.23-.12-.38-.17-.43-.17-.29-.06-.46-.17-.52-.35,0-.06,.14-.12,.43-.17,.23-.06,.4-.06,.52,0,.46,.29,.98,.53,1.56,.74,.58,.2,1.12,.36,1.64,.48,.52,.12,1.08,.26,1.69,.43s1.14,.38,1.6,.61c1.56,.75,2.78,1.5,3.67,2.25,.89,.75,1.63,1.67,2.21,2.77,.58,1.1,1.09,2.57,1.56,4.41,.12,.46,.32,1.41,.61,2.85,.29,1.44,.58,2.51,.86,3.2,.12,.35,.06,.66-.17,.95-.69,.98-.78,2.08-.26,3.29,.35,.81,.46,1.76,.35,2.85-.06,.52-.03,1.1,.09,1.73,.12,.63,.25,1.28,.39,1.95,.14,.66,.19,1.25,.13,1.77,0,.23,.07,.49,.22,.78,.14,.29,.33,.61,.56,.95,.23,.35,.37,.61,.43,.78Zm-8.47,4.93c.23-.17,.32-.37,.26-.61,0-.29-.14-.43-.43-.43h-.95c-.29,0-.43-.03-.43-.09-.06-.23,.03-.35,.26-.35,.06,0,.09-.03,.09-.09,.35-.06,.62-.2,.82-.43,.2-.23,.25-.46,.13-.69-.23-.29-.35-.72-.35-1.3s-.06-.98-.17-1.21c-.23-.35-.35-.82-.35-1.43s-.03-1.05-.09-1.34c-.23-.52-.4-1.18-.52-1.99-.06-.52-.43-.86-1.12-1.04-1.21-.23-2.16-.55-2.85-.95-1.1-.69-2.54-1.04-4.32-1.04-1.21,.06-2.25,.52-3.11,1.38-1.73,1.73-2.85,2.83-3.37,3.29-.69,.63-1.07,1.47-1.12,2.51,0,1.56,.49,2.71,1.47,3.46,.11,.12,.3,.29,.56,.52,.26,.23,.5,.43,.74,.61,.23,.17,.49,.32,.78,.43,.06,0,.16,.07,.3,.22,.14,.14,.19,.25,.13,.3-.06,.17-.32,.26-.78,.26s-.66,.17-.61,.52c0,.06-.01,.16-.04,.3-.03,.15-.03,.26,0,.35,.03,.09,.1,.16,.22,.22,.63,.35,1.01,.49,1.12,.43,.23-.29,.52-.32,.86-.09,.35,.23,.63,.32,.87,.26h2.59c.29,.12,.68,.16,1.17,.13,.49-.03,.91-.09,1.25-.17,.35-.09,.78-.19,1.3-.3,.52-.12,.95-.2,1.3-.26,1.61-.17,3.08-.63,4.41-1.38Z"/><path class="o" d="M316.8,171.74c.06,.46,.07,.76,.04,.91-.03,.14-.13,.39-.3,.73-.17,.35-.29,.59-.35,.74-.06,.14-.13,.27-.22,.39-.09,.12-.2,.22-.35,.3-.14,.09-.25,.14-.3,.17-.06,.03-.32,.07-.78,.13h-4.67c-.46,0-.81,.01-1.04,.04-.23,.03-.46,.14-.69,.35-.23,.2-.4,.5-.52,.91,0,.12-.04,.23-.13,.35-.09,.12-.19,.22-.3,.3-.12,.09-.26,.1-.43,.04-.52-.06-.98-.06-1.38,0-.4,.06-.85,.07-1.34,.04-.49-.03-.94-.16-1.34-.39-.17-.06-.36-.1-.56-.13-.2-.03-.38-.04-.52-.04s-.33,.01-.56,.04c-.23,.03-.4,.04-.52,.04-1.62-.12-2.62-.83-3.03-2.16-.12-.29-.23-.71-.35-1.25-.12-.55-.2-.94-.26-1.17-.35-1.27,.14-1.87,1.47-1.82,.4,0,.65-.04,.74-.13,.09-.09,.07-.25-.04-.48-.12-.23-.2-.37-.26-.43v-1.3c.11-1.09-.03-2.1-.43-3.03-.12-.17-.12-.32,0-.43,.29-.46,.43-1.15,.43-2.08s.09-1.61,.26-2.08c.23-.4,.32-.78,.26-1.12-.17-1.27,.03-3.78,.61-7.52,.17-.92,.27-2.25,.3-3.98,.03-1.73,.07-2.88,.13-3.46,0-.35-.06-.56-.17-.65-.12-.09-.35-.16-.69-.22-.23,0-.61,.01-1.12,.04-.52,.03-.97,.01-1.34-.04-.38-.06-.73-.2-1.08-.43-.52-.35-.89-.69-1.12-1.04-1.1-1.96-1.59-4.27-1.47-6.92,0-.35,.2-.52,.61-.52,.87,.12,1.33,.2,1.38,.26,.52,.29,1.28,.51,2.29,.65,1.01,.14,1.74,.33,2.21,.56,.29,.17,.46-.03,.52-.61,0-.23-.1-.59-.3-1.08-.2-.49-.3-.88-.3-1.17,.17-1.15,.03-1.9-.43-2.25,.12-.69,.06-1.66-.17-2.9-.23-1.24-.35-2.12-.35-2.64,0-.75,.3-.98,.91-.69,.61,.29,1.31,.56,2.12,.82,.81,.26,1.61,.5,2.42,.73,.81,.23,1.53,.52,2.16,.87,1.56,.86,2.48,2.33,2.77,4.41,.17,.98,.06,1.76-.35,2.33-.23,.35-.23,.71,0,1.08,.23,.38,.58,.56,1.04,.56,.52,.06,1.01,.16,1.47,.3,.46,.14,1.01,.36,1.64,.65,.63,.29,1.07,.49,1.3,.6,.63,.23,1.09,.66,1.38,1.3,.06,.12,.09,.27,.09,.48v.52c0,.14,.03,.3,.09,.48,.06,.17,.17,.35,.35,.52-.4,.23-.75,.75-1.04,1.56-.29,.81-.66,1.3-1.12,1.47-1.5,.75-2.68,.81-3.55,.17-.23-.11-.86-.11-1.9,0-.23,0-.53-.11-.91-.35-.38-.23-.68-.29-.91-.17h-.65c-.09,0-.16,.06-.22,.17-.06,.12-.12,.26-.17,.43,0,.12-.07,.35-.22,.69-.14,.35-.22,.64-.22,.87v2.55c0,.32-.04,.71-.13,1.17-.09,.46-.19,.89-.3,1.3-.35,.98-.26,1.76,.26,2.33,.17,.12,.23,.4,.17,.87-.12,.58-.03,1.44,.26,2.59,.29,1.15,.38,2.05,.26,2.68-.06,.06,.06,.35,.35,.86,.23,.4,.46,1.3,.69,2.68,.35,2.13,.98,4.35,1.9,6.66,.23,.58,.52,.66,.86,.26,.35-.4,.81-.52,1.38-.35,.35,.12,.81,.25,1.38,.39,.58,.14,1.12,.29,1.64,.43,.52,.14,.98,.3,1.38,.48,.58,.29,1.04,.86,1.38,1.73Zm-13.49-23.35c-.12-.98-.12-1.53,0-1.64,.29-.4,.46-.83,.52-1.3,.06-.46,.06-.88,0-1.25-.06-.37-.06-.79,0-1.25,0-.23-.06-.37-.17-.43-.12-.06-.26-.09-.43-.09-.29,.06-.43,.23-.43,.52,.06,.87-.04,2.29-.3,4.28-.26,1.99-.33,3.53-.22,4.63,.06,.06,.09,.64,.09,1.73,0,3.4-.03,5.45-.09,6.14,0,.35,.11,.49,.35,.43,.11,0,.17-.12,.17-.35-.06-1.21,.04-3.08,.3-5.62,.26-2.54,.33-4.47,.22-5.79Z"/><path class="o" d="M329.77,168.2c.12,.17,.23,.52,.35,1.04,.12,.52,.23,.89,.35,1.12,0,.06,.04,.17,.13,.35,.09,.17,.14,.3,.17,.39,.03,.09,.06,.2,.09,.35,.03,.14,.03,.26,0,.35-.03,.09-.07,.19-.13,.3-.06,.12-.14,.2-.26,.26-.12,.06-.29,.12-.52,.17,.06,.23,.06,.43,0,.61-.06,.17-.13,.35-.22,.52-.09,.17-.19,.33-.3,.48-.12,.14-.23,.3-.35,.48-.12,.17-.2,.32-.26,.43-.17,.58-.69,.89-1.56,.95-2.31,.06-3.98-.55-5.01-1.82-.69-.92-1.1-1.99-1.21-3.2-.06-.17-.23-.82-.52-1.95-.29-1.12-.32-1.97-.09-2.55v-.43c-.29-1.27,.14-2.16,1.3-2.68,.92-.35,1.47-1.33,1.64-2.94v-.35c0-.17,.01-.29,.04-.35s.1-.09,.22-.09c.12,.06,.2,.26,.26,.61,.17,.35,.32,.89,.43,1.64,.11,.75,.29,1.33,.52,1.73,.17,.29,.32,.43,.43,.43,.29,0,.49-.11,.61-.35,.4-.98,.55-1.82,.43-2.51v-2.25l.26-.35,.26,.35v.52c.35,2.19,.83,3.66,1.47,4.41,.29,.35,.5,.75,.65,1.21,.14,.46,.29,1.01,.43,1.64,.14,.64,.27,1.12,.39,1.47Zm-.35-31.39c1.38,.35,2.42,1.53,3.11,3.55,.52,1.38,.43,2.59-.26,3.63-.29,.46-.66,1.18-1.12,2.16-.46,.98-.84,1.67-1.12,2.08-1.73,3-2.62,5.51-2.68,7.52,0,.23-.09,.48-.26,.74-.17,.26-.26,.45-.26,.56,0,.35-.12,.49-.35,.43-.12,0-.17-.14-.17-.43,.06-.4,.06-1.04,0-1.9-.06-.86-.06-1.64,0-2.33,.06-.69,.23-1.35,.52-1.99,.17-.35,.11-.55-.17-.61-.12,0-.2,.09-.26,.26-.06,.12-.09,.2-.09,.26-.52,.98-.84,2.16-.95,3.55,0,.23-.06,.4-.17,.52s-.26,.22-.43,.3c-.17,.09-.29,.16-.35,.22-.17,.17-.32,.25-.43,.22-.12-.03-.14-.16-.09-.39,.12-.69,.01-1.66-.3-2.9-.32-1.24-.39-2.12-.22-2.64,0-.98-.12-2.36-.35-4.15-.23-1.79-.29-3.11-.17-3.98-.17-.29-.29-.61-.35-.95-.06-.35-.1-.65-.13-.91s-.04-.61-.04-1.04v-1.6c.12-.69,.35-1.35,.69-1.99,.17-.23,.35-.29,.52-.17,.17,.12,.39,.26,.65,.43s.48,.17,.65,0c1.56,.63,3.08,1.15,4.58,1.56Zm4.93-18.07c1.9,1.62,2.48,3.4,1.73,5.36-.17,.46-.4,1.18-.69,2.16-.29,.98-.58,1.85-.87,2.59-.29,.75-.63,1.44-1.04,2.08-.64,.98-1.18,1.62-1.64,1.9-.46,.29-1.24,.43-2.33,.43-2.25,.23-3.8-1.21-4.67-4.32-.12-.46-.25-1.27-.39-2.42-.14-1.15-.33-2.02-.56-2.59-.17-.17-.23-.49-.17-.95,.06-.46,.1-.75,.13-.86,.03-.12,.13-.4,.3-.87,.17-.46,.29-.72,.35-.78,.11-.4,.24-.83,.39-1.3,.14-.46,.3-.92,.48-1.38,.17-.46,.32-.86,.43-1.21,.12-.35,.22-.53,.3-.56,.09-.03,.19,.03,.3,.17,.11,.14,.2,.22,.26,.22,.46,.17,1.18,.35,2.16,.52,.98,.17,1.7,.32,2.16,.43,.17,.06,.35,.14,.52,.26,.17,.12,.35,.25,.52,.39,.17,.14,.33,.26,.48,.35,.14,.09,.45,.12,.91,.09,.46-.03,.78,.07,.95,.3Z"/><path class="o" d="M369.98,165.6c.23,.4,.39,.71,.48,.91,.09,.2,.17,.48,.26,.82s.09,.68,0,.99c-.09,.32-.25,.65-.48,1-.12,.17-.14,.36-.09,.56,.06,.2,.07,.42,.04,.65-.03,.23-.16,.38-.39,.43-.4,.06-.59,.27-.56,.65,.03,.38,.01,.59-.04,.65-.23,.06-.43,.13-.6,.22-.17,.09-.32,.23-.43,.43-.12,.2-.2,.36-.26,.48-.06,.12-.14,.3-.26,.56-.12,.26-.17,.45-.17,.56-.17,.35-.43,.49-.78,.43-.64-.06-1.59,.04-2.85,.3-1.27,.26-2.25,.33-2.94,.22-.98-.06-2.44,.06-4.37,.35-1.93,.29-3.33,.35-4.19,.17h-4.32c-.46,0-1.87-.2-4.24-.61-.92-.17-2.42-.95-4.5-2.33-.63-.46-1.18-1.01-1.64-1.64-.46-.63-.95-1.46-1.47-2.46-.52-1.01-.87-1.69-1.04-2.03,0-.52-.14-1.56-.43-3.11-.29-1.56-.32-2.77-.09-3.63,.23-1.09,.72-2.05,1.47-2.85,.12-.17,.43-.49,.95-.95,.52-.46,.89-.83,1.12-1.12,1.44-1.73,3.43-2.91,5.97-3.55,.17,0,.36-.07,.56-.22,.2-.14,.4-.25,.6-.3,.2-.06,.39-.06,.56,0,.12,.06,.24,.07,.39,.04,.14-.03,.27-.04,.39-.04s.17,.06,.17,.17c0,.17-.04,.27-.13,.3-.09,.03-.22,.03-.39,0-.17-.03-.29-.01-.35,.04-1.44,.63-2.85,1.44-4.24,2.42l-.17,.35,.43,.17c.12,0,.26-.06,.43-.17,1.27-.87,3.26-1.44,5.97-1.73,.23-.06,.56-.16,.99-.3,.43-.14,.76-.25,.99-.3,.23-.06,.58-.06,1.04,0,.17,.06,.29,.03,.35-.09,.17-.4,.39-.71,.65-.91,.26-.2,.53-.32,.82-.35,.29-.03,.61-.06,.95-.09,.35-.03,.69-.04,1.04-.04h.17c.23,0,.36-.01,.39-.04,.03-.03-.04-.22-.22-.56-.12-.12-.03-.23,.26-.35h.17c.63-.06,1.76,.2,3.37,.78,.46,.17,.75,.22,.87,.13,.11-.09,.14-.36,.09-.82-.23-1.61-.62-2.91-1.17-3.89-.55-.98-1.49-1.7-2.81-2.16-.17-.06-.52-.24-1.04-.56-.52-.32-.95-.48-1.3-.48-1.15,0-2.22,.26-3.2,.78-2.48,1.27-4.53,1.85-6.14,1.73-2.42-.11-3.95-1.18-4.58-3.2-.86-2.88-1.21-5.19-1.04-6.92,0-.35,.06-.58,.17-.69,.29-.4,.91-.71,1.86-.91s1.6-.13,1.95,.22,.95,.55,1.82,.61c.92,.12,2.25,.06,3.98-.17,1.73-.23,2.97-.35,3.72-.35l.35-.26c-.23-.12-.38-.17-.43-.17-.29-.06-.46-.17-.52-.35,0-.06,.14-.12,.43-.17,.23-.06,.4-.06,.52,0,.46,.29,.98,.53,1.56,.74,.58,.2,1.12,.36,1.64,.48,.52,.12,1.08,.26,1.69,.43s1.14,.38,1.6,.61c1.56,.75,2.78,1.5,3.67,2.25,.89,.75,1.63,1.67,2.21,2.77,.58,1.1,1.09,2.57,1.56,4.41,.12,.46,.32,1.41,.61,2.85,.29,1.44,.58,2.51,.86,3.2,.12,.35,.06,.66-.17,.95-.69,.98-.78,2.08-.26,3.29,.35,.81,.46,1.76,.35,2.85-.06,.52-.03,1.1,.09,1.73,.12,.63,.25,1.28,.39,1.95,.14,.66,.19,1.25,.13,1.77,0,.23,.07,.49,.22,.78,.14,.29,.33,.61,.56,.95,.23,.35,.37,.61,.43,.78Zm-8.47,4.93c.23-.17,.32-.37,.26-.61,0-.29-.14-.43-.43-.43h-.95c-.29,0-.43-.03-.43-.09-.06-.23,.03-.35,.26-.35,.06,0,.09-.03,.09-.09,.35-.06,.62-.2,.82-.43,.2-.23,.25-.46,.13-.69-.23-.29-.35-.72-.35-1.3s-.06-.98-.17-1.21c-.23-.35-.35-.82-.35-1.43s-.03-1.05-.09-1.34c-.23-.52-.4-1.18-.52-1.99-.06-.52-.43-.86-1.12-1.04-1.21-.23-2.16-.55-2.85-.95-1.1-.69-2.54-1.04-4.32-1.04-1.21,.06-2.25,.52-3.11,1.38-1.73,1.73-2.85,2.83-3.37,3.29-.69,.63-1.07,1.47-1.12,2.51,0,1.56,.49,2.71,1.47,3.46,.11,.12,.3,.29,.56,.52,.26,.23,.5,.43,.74,.61,.23,.17,.49,.32,.78,.43,.06,0,.16,.07,.3,.22,.14,.14,.19,.25,.13,.3-.06,.17-.32,.26-.78,.26s-.66,.17-.61,.52c0,.06-.01,.16-.04,.3-.03,.15-.03,.26,0,.35,.03,.09,.1,.16,.22,.22,.63,.35,1.01,.49,1.12,.43,.23-.29,.52-.32,.86-.09,.35,.23,.63,.32,.87,.26h2.59c.29,.12,.68,.16,1.17,.13,.49-.03,.91-.09,1.25-.17,.35-.09,.78-.19,1.3-.3,.52-.12,.95-.2,1.3-.26,1.61-.17,3.08-.63,4.41-1.38Z"/></g><g><polygon class="g" points="314.86 110.8 323.38 103.82 327.14 117.11 314.86 110.8"/><g><path class="r" d="M322.77,105.98h0c-.78,.64-1.79,.71-2.25,.15l-25.7-31.38,2.84-2.33,25.7,31.38c.46,.56,.2,1.54-.59,2.18Z"/><path class="i" d="M319.93,108.3h0c-.78,.64-1.79,.71-2.25,.15l-25.7-31.38,2.84-2.33,25.7,31.38c.46,.56,.2,1.54-.59,2.18Z"/><path class="t" d="M317.09,110.63h0c-.78,.64-1.79,.71-2.25,.15l-25.7-31.38,2.84-2.33,25.7,31.38c.46,.56,.2,1.54-.59,2.18Z"/></g><rect class="s" x="287.23" y="74.04" width="11.01" height="2.1" transform="translate(566.78 -52.3) rotate(140.68)"/><path class="l" d="M284.88,69.58h11.01v2.75c0,1.41-1.14,2.55-2.55,2.55h-5.91c-1.41,0-2.55-1.14-2.55-2.55v-2.75h0Z" transform="translate(560.81 -55.89) rotate(140.68)"/><polygon class="o" points="327.14 117.11 326.37 114.38 324.62 115.81 327.14 117.11"/></g></svg>