<svg xmlns="http://www.w3.org/2000/svg" fill-rule="evenodd" stroke-linejoin="round" stroke-miterlimit="2" clip-rule="evenodd" viewBox="0 0 64 64"><path fill="none" d="M0 0h64v64H0z"/><path fill="#95d6a4" d="M32.203 15c.183 0 .352-.1.439-.261l5.716-10.478A.499.499 0 0 1 38.797 4H48c.133 0 .26.053.354.146a.504.504 0 0 1 .146.354v11.377c0 .081-.02.16-.057.232l-9.492 18.159a.5.5 0 0 0 .443.732H49a.5.5 0 0 1 .5.5v13a.5.5 0 0 1-.5.5H31.553a.5.5 0 0 0-.443.268l-5.47 10.464a.5.5 0 0 1-.443.268H15a.5.5 0 0 1-.5-.5V48.128c0-.084.021-.166.061-.24l9.899-18.149a.498.498 0 0 0-.439-.739H16a.5.5 0 0 1-.5-.5v-13a.5.5 0 0 1 .5-.5h16.203Z"/><path fill="#78c2a4" d="M19 15v11.5a.5.5 0 0 0 .5.5h8.021a.499.499 0 0 1 .439.739l-9.899 18.149a.503.503 0 0 0-.061.24V57.5a.5.5 0 0 0 .5.5h8.045l-.905 1.732a.5.5 0 0 1-.443.268H15a.5.5 0 0 1-.5-.5V48.128c0-.084.021-.166.061-.24l9.899-18.149a.498.498 0 0 0-.439-.739H16a.5.5 0 0 1-.5-.5v-13a.5.5 0 0 1 .5-.5h3Zm30.5 32v1.5a.5.5 0 0 1-.5.5H33.705l.905-1.732a.5.5 0 0 1 .443-.268H49.5ZM40.909 4l-4.767 8.739a.499.499 0 0 1-.439.261h-2.112l4.767-8.739A.499.499 0 0 1 38.797 4h2.112Z"/></svg>