<?xml version="1.0" encoding="UTF-8"?><svg id="a" xmlns="http://www.w3.org/2000/svg" xmlns:xlink="http://www.w3.org/1999/xlink" viewBox="0 0 397.44 73.5"><defs><style>.l{fill:#fdcda0;}.m{fill:none;stroke-linecap:round;stroke-linejoin:round;stroke-width:2.16px;}.m,.n,.o{stroke:#231f20;}.p{fill:url(#c);}.q{fill:#f57e20;}.r{fill:url(#f);}.s{fill:#f285b5;}.n{fill:url(#g);}.n,.o{stroke-miterlimit:10;stroke-width:.38px;}.t{fill:url(#i);}.u{fill:url(#h);}.v{fill:#fff;opacity:.2;}.w{fill:url(#d);}.x{fill:url(#e);}.y{fill:#f99e1d;}.a`{fill:#d1d3d4;}.aa{fill:url(#j);}.ab{fill:url(#k);}.ac{fill:#f16024;}.o{fill:url(#b);}.ad{fill:#231f20;}</style><linearGradient id="b" x1="33.23" y1="48.81" x2="121.12" y2="51.53" gradientTransform="matrix(1, 0, 0, 1, 0, 0)" gradientUnits="userSpaceOnUse"><stop offset="0" stop-color="#ec2326"/><stop offset="1" stop-color="#a8292b"/></linearGradient><linearGradient id="c" x1="64.81" y1="21.64" x2="65" y2="50.49" gradientTransform="matrix(1, 0, 0, 1, 0, 0)" gradientUnits="userSpaceOnUse"><stop offset="0" stop-color="#75bc43"/><stop offset="1" stop-color="#178c44"/></linearGradient><linearGradient id="d" x1="51.83" y1="21.73" x2="52.02" y2="50.58" xlink:href="#c"/><linearGradient id="e" x1="57.52" y1="21.69" x2="57.72" y2="50.54" xlink:href="#c"/><linearGradient id="f" x1="60" y1="21.7" x2="60.19" y2="50.47" xlink:href="#c"/><linearGradient id="g" x1="156.71" y1="47.41" x2="244.6" y2="50.13" xlink:href="#b"/><linearGradient id="h" x1="188.28" y1="20.24" x2="188.48" y2="49.09" xlink:href="#c"/><linearGradient id="i" x1="175.3" y1="20.33" x2="175.5" y2="49.18" xlink:href="#c"/><linearGradient id="j" x1="181" y1="20.29" x2="181.19" y2="49.14" xlink:href="#c"/><linearGradient id="k" x1="183.47" y1="20.3" x2="183.67" y2="49.07" xlink:href="#c"/></defs><g><path class="ad" d="M42.33,13.87c1.91,.99,2.9,2.53,2.97,4.63,0,2.29-1.11,4.33-3.34,6.12-.8,.62-2.04,1.33-3.71,2.13-1.17,.56-2.29,1.61-3.34,3.15-.68,1.05-1.62,2.33-2.83,3.85-1.2,1.51-2.3,2.95-3.29,4.31-.99,1.36-1.82,2.69-2.5,3.99-1.98,3.83-3.21,6.33-3.71,7.51,0,.06-.03,.14-.09,.23-.06,.09-.09,.17-.09,.23,.12,.74,.09,1.51-.09,2.32-.19,.8-.48,1.7-.88,2.69-.4,.99-.66,1.73-.79,2.22-.19,.68-.62,2.16-1.3,4.45-.25,.8-.5,2.32-.74,4.54-.31,2.47-1.02,4.11-2.13,4.91-.19,.12-.37,.37-.56,.74-.19,.37-.39,.66-.6,.88-.22,.22-.54,.26-.97,.14-.37,.62-1.02,.74-1.95,.37-.93-.37-1.58-.5-1.95-.37-1.11-1.17-1.76-1.95-1.95-2.32-.06-.12-.15-.48-.28-1.07-.12-.59-.37-.97-.74-1.16,.12-.62,.03-1.53-.28-2.73-.31-1.21-.37-2.09-.19-2.64,0-1.05-.03-1.58-.09-1.58-.19-1.24,.31-2.16,1.48-2.78,.31-.19,.56-.46,.74-.83,.37-.8,1.07-2.02,2.09-3.66,1.02-1.64,1.75-2.92,2.18-3.85,.31-.62,.62-.8,.93-.56,.25,.12,.4,.2,.46,.23,.06,.03,.09-.05,.09-.23s.03-.31,.09-.37c.31-.49,.62-.77,.93-.83,.19-.06,.35-.14,.51-.23,.15-.09,.26-.19,.32-.28,.06-.09,.14-.25,.23-.46,.09-.22,.14-.35,.14-.42,.68-1.24,1.64-2.72,2.87-4.45,.19-.25,.12-.49-.19-.74-.56-.49-1.1-1.03-1.62-1.62-.53-.59-1.11-1.28-1.76-2.09-.65-.8-1.13-1.39-1.44-1.76-.93-1.05-1.98-2.56-3.15-4.54-.5-.8-1.02-1.36-1.58-1.67-.8-.49-1.56-1.07-2.27-1.71-.71-.65-1.55-1.5-2.5-2.55-.96-1.05-1.59-1.73-1.9-2.04-1.79-1.73-2.78-4.05-2.97-6.95,0-.31-.12-.93-.37-1.85C0,14.24-.06,13.5,.06,12.95c.12-.56,.4-.74,.83-.56,.68,.31,1.7,.68,3.06,1.11,1.36,.43,2.35,.77,2.97,1.02,1.98,.8,3.58,2.16,4.82,4.08,.43,.74,1.05,1.82,1.85,3.24,.8,1.42,1.42,2.47,1.85,3.15,1.67,2.53,3.89,4.51,6.67,5.93,.99,.56,1.73,1.11,2.22,1.67,.68,.68,1.1,1,1.25,.97,.15-.03,.48-.45,.97-1.25,.56-.93,2.16-3.61,4.82-8.06,.06-.06,.19-.23,.37-.51,.19-.28,.31-.48,.37-.6,.06-.12,.14-.31,.23-.56,.09-.25,.14-.45,.14-.6s-.03-.35-.09-.6c-.06-.25-.19-.49-.37-.74-.06-.06,0-.37,.19-.93,.06-.19,.22-.65,.46-1.39,.25-.74,.42-1.28,.51-1.62,.09-.34,.19-.8,.28-1.39,.09-.59,.14-1.13,.14-1.62-.06-1.11,.4-1.79,1.39-2.04,.06,0,.14-.06,.23-.19,.09-.12,.2-.12,.32,0,.68,.25,1.78,.6,3.29,1.07,1.51,.46,2.67,.91,3.48,1.34Z"/><g><path class="o" d="M77.36,48.17c.59,13.86-7.96,21.97-20.35,19.73-8.63-1.56-19.1-7.54-21.29-18.83-1.68-8.64,2.88-18.14,21.02-18.12,18.28,.02,20.24,8.37,20.62,17.22Z"/><g><g><path class="p" d="M59.78,28.91s3.1,1.11,5.61,1.19c1.08,.03,2.73-.15,3.6-.31,.76-.14,1.48-.42,1.48-.42,0,0-.16,.95-2.34,1.81-1.51,.59-3.2,.78-4.15,.78l-4.7-.47"/><path class="ad" d="M59.81,28.82c3.34,1.31,7.2,1.66,10.62,.45,.21-.06,.22-.16,.13,.1-.23,.66-.77,1.02-1.29,1.34-1.61,.91-3.47,1.28-5.31,1.32l-4.7-.47,.02-.19,4.7,.47c2.08-.13,5.23-.51,6.39-2.51l.13,.1c-1.73,.62-3.59,.76-5.41,.71-1.84-.11-3.58-.68-5.34-1.16l.06-.18h0Z"/></g><g><path class="w" d="M57.15,28.63l-1.11,.07c-1.17,.04-2.09,.09-2.79,.14-1.63,.12-3.21,.6-4.59,1.45-.34,.21-.68,.44-1,.69-1.84,1.46-1.71,2.41-1.71,2.41,0,0,.6-.48,1.29-.84,.78-.41,2.3-1.1,3.35-1.35,2.09-.5,3.34-.36,3.34-.36l3.94,.13"/><path class="ad" d="M57.15,28.67c-3.12,.15-6.75,.1-9.27,2.25-.79,.61-1.75,1.43-1.85,2.46l-.15-.06c2.3-1.66,5.21-2.69,8.04-2.57l3.94,.13v.19c-1.49,0-4.62-.29-6.05,0-2.13,.35-4.23,1.21-5.95,2.52l-.02-.17c.01-.62,.37-1.09,.72-1.51,1.85-2.03,4.61-3.12,7.33-3.14l3.25-.16v.09h0Z"/></g><g><path class="x" d="M55.85,29.76c-1.01,.69-3.17,1.62-4.34,2.43-1.04,.72-2.16,1.72-2.56,3.1s-.28,1.88,.58,.81c.72-.91,2.26-2.19,3.88-3.04,1.42-.74,2.06-1.16,2.59,.85s.59,2.51,.87,3.82c.74-1.45,1.11-2.61,1.17-4.86,.06-.84,.11-1.37,1.9-.74,0,0,4.36,1.53,6.56,3.48-.43-1.67-1.86-3.47-4.27-4.85-.75-.42-1.08-.56-1.58-.87"/><path class="ad" d="M55.85,29.76c-2.63,1.81-7.05,2.99-7,6.83,.13,.05,.36-.25,.47-.36,1.45-1.71,3.35-3.14,5.48-3.86,.59-.12,.96,.48,1.12,.95,.47,1.43,.74,2.91,1.05,4.37l-.18-.02c.59-1.11,.98-2.31,1.08-3.57,.18-.67-.19-1.89,.53-2.3,.17-.07,.35-.06,.51-.05,1.56,.31,3,1.05,4.43,1.72,1.13,.57,2.25,1.21,3.22,2.05l-.15,.09c-.69-2.84-3.42-4.36-5.76-5.74,1.27,.62,2.55,1.24,3.59,2.21,1.11,1.02,2.08,2.27,2.43,3.77-2.23-1.85-4.99-3.18-7.78-3.92-1.13-.15-.63,1.48-.83,2.18-.11,1.27-.51,2.52-1.1,3.63l-.12,.23-.05-.25c-.31-1.46-.57-2.94-1.04-4.35-.15-.44-.44-.95-.93-.84-2.04,.74-3.98,2.09-5.38,3.79-.18,.16-.42,.57-.7,.35-.24-3.91,4.35-5.34,7.12-6.93h0Z"/></g><g><path class="r" d="M57.01,30.47c.04-1.95,.14-2.44,.74-3.98,.68-1.74,2.63-2.56,3.46-2.88s2.98-.11,1.07,1.12c-1.29,.83-2.57,1.11-2.48,5.85"/><path class="ad" d="M57.01,30.47c-.17-2.3,.49-4.99,2.63-6.2,.69-.39,1.39-.81,2.2-.88,1.12-.1,1.91,.46,.68,1.3-.65,.45-1.38,.77-1.8,1.41-.85,1.3-.74,2.97-.91,4.48-.13-1.55-.13-3.24,.74-4.6,.57-.87,1.61-1.12,2.28-1.82,.12-.14,.18-.3,.07-.39-1-.57-2.26,.13-3.16,.65-2.16,1.19-2.59,3.8-2.72,6.05h0Z"/></g></g><path class="v" d="M42.66,42.89c-1,2.18-2.18,8.88,1.73,12.42,1.27,1.15,3.61,1.7,3.61,1.7,0,0,.16-1.38-.99-3.61-1.64-3.18-1.45-6.3-1.01-8.5,.34-1.69,1.25-3.44,1.98-4.63,1.15-1.89,.74-2.73,.74-2.73,0,0-4.15,1.16-6.08,5.35Z"/></g><path class="ad" d="M118.7,65.97c.19,.12,.26,.43,.23,.93-.03,.5-.36,.74-.97,.74-.37,.06-.43,.37-.19,.93,.12,.43-.05,.88-.51,1.34s-.66,.85-.6,1.16c0,.19-.25,.28-.74,.28h-2.04c-.93,0-1.64-.08-2.13-.23-.5-.15-.93-.43-1.3-.83-.37-.4-.77-1-1.21-1.81-.31-.62-.65-1.34-1.02-2.18-.37-.83-.74-1.64-1.11-2.41-.37-.77-.74-1.47-1.11-2.09-1.92-3.52-3.83-6.46-5.75-8.81-.31-.43-.96-1.17-1.95-2.22-.99-1.05-1.78-1.99-2.36-2.83-.59-.83-1.04-1.71-1.34-2.64-.25-.62-.53-.56-.83,.19-.8,1.67-2.01,2.32-3.62,1.95-.5-.06-.62,.12-.37,.56,.12,.19,.26,.56,.42,1.11,.15,.56,.29,.96,.42,1.21,.43,.56,.62,1.11,.56,1.67-.06,.43-.06,.68,0,.74,.37,.62,.66,1.36,.88,2.22,.22,.87,.35,1.67,.42,2.41,.06,.74,.19,1.55,.37,2.41,.19,.87,.49,1.61,.93,2.22,.12,.25,.2,.65,.23,1.2,.03,.56,.11,.99,.23,1.3,.49,.93,.25,1.48-.74,1.67-.19,.06-.29,.19-.32,.37-.03,.19-.08,.43-.14,.74-.06,.31-.15,.56-.28,.74-1.05,1.42-2.56,1.98-4.54,1.67-1.79-.25-2.94-1.24-3.43-2.97-.06-.19-.25-.57-.56-1.16-.31-.59-.46-1.03-.46-1.34,0-.49-.12-1.34-.37-2.55-.25-1.21-.31-2.15-.19-2.83v-.79c0-.34,.01-.62,.05-.83,.03-.22,.11-.46,.23-.74,.12-.28,.31-.51,.56-.7,.49-.49,.71-1.36,.65-2.6-.06-.74,.03-1.82,.28-3.24,.25-1.42,.37-2.47,.37-3.15v-1.16c0-.15-.03-.34-.09-.56-.06-.22-.19-.39-.37-.51-.12-.12-.17-.34-.14-.65,.03-.31,.17-.59,.42-.83,.25-.19,.28-.59,.09-1.21,0-.06-.05-.14-.14-.23s-.17-.19-.23-.28c-.06-.09-.11-.19-.14-.28-.03-.09,.01-.2,.14-.32,.31-.37,.8-.62,1.48-.74,.86-.19,1.36-.12,1.48,.19,.06,.12,.01,.22-.14,.28-.16,.06-.34,.11-.56,.14-.22,.03-.36,.11-.42,.23,0,.06-.06,.19-.19,.37-.25,.31-.25,.56,0,.74,.8,.5,1.27,.37,1.39-.37,.06-.37,.31-.56,.74-.56,.06,0,.19,.09,.37,.28,.19,.19,.37,.19,.56,0,.31-.19,.65-.39,1.02-.6,.37-.22,.79-.43,1.25-.65,.46-.22,.79-.39,.97-.51,.62-.31,.74-.77,.37-1.39-.31-.49-.46-.96-.46-1.39,0-.56,.05-.88,.14-.97s.42,.02,.97,.32c.12,.06,.37,.09,.74,.09s.62,.06,.74,.19l.09,.09c.06,.25,.22,.28,.46,.09,.31-.19,.6-.43,.88-.74,.28-.31,.51-.59,.7-.83,.19-.25,.4-.59,.65-1.02,.25-.43,.42-.74,.51-.93,.09-.19,.26-.54,.51-1.07,.25-.52,.4-.85,.46-.97,.25-.49,.25-.83,0-1.02-.25-.31-.4-.62-.46-.93-.06-.31-.06-.57,0-.79,.06-.22,.17-.51,.32-.88,.15-.37,.23-.62,.23-.74,.37-1.11,.52-1.91,.46-2.41-.12-.93,.28-2.35,1.21-4.26,.25-.43,.62-.56,1.11-.37,.25,.06,1.07,.31,2.46,.74,1.39,.43,2.46,.77,3.2,1.02,1.48,.5,2.55,1.39,3.2,2.69,.65,1.3,.76,2.72,.32,4.26-.19,.56-.71,1.58-1.58,3.06-.19,.25-.43,.56-.74,.93-.31,.37-.62,.73-.93,1.07-.31,.34-.56,.67-.74,.97-.31,.43-.9,.85-1.76,1.25-.87,.4-1.36,.63-1.48,.7-.06,0-.37,.14-.93,.42-.56,.28-.93,.57-1.11,.88-.06,0-.23,.14-.51,.42-.28,.28-.45,.51-.51,.7-.06,.06-.03,.14,.09,.23,.12,.09,.26,.22,.42,.37,.15,.15,.26,.26,.32,.32,1.3,1.48,2.22,3.49,2.78,6.02,.12,.5,.31,1.19,.56,2.09,.25,.9,.4,1.47,.46,1.71,.06,.25,.03,.4-.09,.46-.19,.06-.29,.06-.32,0-.03-.06-.05-.19-.05-.37,0-.12-.03-.23-.09-.32-.06-.09-.14-.19-.23-.28-.09-.09-.17-.17-.23-.23-.06-.06-.08-.15-.05-.28,.03-.12,.03-.22,0-.28-.03-.06-.14-.09-.32-.09-.31,.12-.37,.46-.19,1.02,.19,.37,.52,1.24,1.02,2.6,.49,1.36,.93,2.38,1.3,3.06,.99,1.92,2.04,3.34,3.15,4.26,.49,.37,.77,.59,.83,.65,.43,.12,.74,.06,.93-.19,.19-.12,.19-.25,0-.37-.19-.12-.28-.25-.28-.37v-.46c.12-.25,.25-.25,.37,0,.37,.43,.8,.88,1.3,1.34,.49,.46,.94,.85,1.34,1.16,.4,.31,.88,.68,1.44,1.11,.56,.43,1.02,.83,1.39,1.2,.31,.25,.54,.53,.7,.83,.15,.31,.29,.66,.42,1.07,.12,.4,.25,.73,.37,.97ZM84.59,11.93c-.25-.43-.34-1.03-.28-1.81,.06-.77,.03-1.34-.09-1.71-.19-.43-.37-1.79-.56-4.08,0-.56,.22-1.02,.65-1.39,.12-.25,.31-.25,.56,0,.25,.25,.4,.4,.46,.46,2.66,.62,4.54,1.17,5.65,1.67,2.1,.93,3.24,2.38,3.43,4.36,0,.12,.09,.59,.28,1.39,.19,.8,.22,1.42,.09,1.85-.8,2.6-1.61,4.48-2.41,5.65-1.11,1.55-1.85,3.34-2.22,5.38-.06,.19-.2,.48-.42,.88-.22,.4-.29,.76-.23,1.07,.06,.19,0,.39-.19,.6-.19,.22-.34,.32-.46,.32-.19,0-.29-.06-.32-.19-.03-.12-.05-.28-.05-.46v-.65l.37-1.95c.12-.31,.2-.62,.23-.93,.03-.31,.03-.71,0-1.21-.03-.49-.05-.83-.05-1.02l-.28-.37c-.19,.25-.28,.4-.28,.46-.74,2.41-1.11,3.92-1.11,4.54,.06,.06,.09,.12,.09,.19,.06,.12,.06,.25,0,.37-.06,.12-.19,.16-.37,.09-.06,0-.09-.06-.09-.19-.06-.25-.12-.4-.19-.46-.68-.74-1.02-1.2-1.02-1.39,.12-.86,.03-2.15-.28-3.85-.31-1.7-.37-3.01-.19-3.94-.37-.43-.54-1.05-.51-1.85,.03-.8-.05-1.42-.23-1.85Zm3.71,42.82c.12-.06,.2-.17,.23-.32,.03-.15,.03-.32,0-.51-.03-.19-.05-.31-.05-.37v-4.17c.06-.37,.01-.62-.14-.74-.16-.12-.39-.19-.7-.19-.43,0-.7,.12-.79,.37-.09,.25-.08,.46,.05,.65,.31,.56,.49,1.64,.56,3.24v.74c0,.12,.28,.56,.83,1.3Z"/><path class="ad" d="M175.61,13.97c.06,.12,.03,.34-.09,.65-.12,.31-.28,.53-.46,.65-.25,.12-.36,.42-.32,.88,.03,.46-.05,.7-.23,.7-.62,.19-.93,.59-.93,1.21,.06,.19,.06,.31,0,.37s-.28,.12-.65,.19c-1.24,.31-2.3,.46-3.2,.46s-2.18-.15-3.85-.46c-.19-.06-.71-.06-1.58,0-1.67,0-4.02-.34-7.04-1.02-.5-.12-1.39-.29-2.69-.51-1.3-.22-2.29-.42-2.97-.6-.56-.19-.83,0-.83,.56,.06,.87-.02,1.78-.23,2.73-.22,.96-.48,1.96-.79,3.01-.31,1.05-.5,1.95-.56,2.69-.06,.25-.25,.5-.56,.74-.31,.25-.46,.46-.46,.65,.06,.5-.03,1.19-.28,2.09-.25,.9-.37,1.53-.37,1.9,.12,2.66,.12,4.54,0,5.65-.19,2.16,.25,4.26,1.3,6.3,.31,.62,.57,1.28,.79,1.99,.22,.71,.43,1.52,.65,2.41,.22,.9,.39,1.56,.51,1.99,.93,3.46,1.27,6.33,1.02,8.62,0,.31,.11,.68,.32,1.11,.22,.43,.32,.77,.32,1.02,0,1.61-.06,2.81-.19,3.62-.12,.8-.46,1.76-1.02,2.87-.74,1.48-1.73,2.35-2.97,2.6-1.61,.31-2.91,.03-3.89-.83-1.79-1.61-2.66-3.27-2.6-5.01,0-.25-.12-.62-.37-1.11-.25-.49-.34-.93-.28-1.3,.06-.19,.08-.4,.05-.65-.03-.25-.09-.52-.19-.83-.09-.31-.17-.52-.23-.65-.06-.43-.09-2.29-.09-5.56v-2.13c-.06-1.3,.25-3.31,.93-6.02,.56-2.35,.8-3.95,.74-4.82-.19-2.1-.19-3.95,0-5.56,.06-.43-.03-1.07-.28-1.9-.25-.83-.37-1.44-.37-1.81,.19-1.79,.19-3.03,0-3.71-.31-1.3-.46-2.13-.46-2.5-.06-.12-.08-.37-.05-.74,.03-.37,.03-.7,0-.97-.03-.28-.14-.54-.32-.79-.25-.49-.28-1.36-.09-2.6,0-.19-.03-.35-.09-.51-.06-.15-.14-.29-.23-.42-.09-.12-.17-.28-.23-.46-.06-.19-.09-.34-.09-.46,.12-.62,.12-1.24,0-1.85-.06-.31-.19-.37-.37-.19-.12,.06-.22,.09-.28,.09-.31-.06-.6-.05-.88,.05-.28,.09-.56,.2-.83,.32-.28,.12-.54,.26-.79,.42-.25,.15-.51,.31-.79,.46-.28,.15-.54,.26-.79,.32-.68,.25-1.65,.54-2.92,.88-1.27,.34-2.18,.6-2.73,.79-1.42,.43-3.28,.43-5.56,0-1.48-.25-2.53-1.14-3.15-2.69-.74-1.73-1.08-3-1.02-3.8,0-.37-.12-.93-.37-1.67-.25-.74-.34-1.36-.28-1.85,.12-.86,.49-1.39,1.11-1.58,.19-.06,.49-.19,.93-.37,.43-.19,.77-.31,1.02-.37,.25-.06,.57-.14,.97-.23,.4-.09,.79-.11,1.16-.05h3.61c.56-.06,.83,.15,.83,.65,0,.37,.28,.5,.83,.37,.49-.12,1.02-.12,1.58,0,.56,.12,1.13,.26,1.71,.42,.59,.15,1.1,.2,1.53,.14,.37,0,.62,.09,.74,.28,.31,.5,.9,.79,1.76,.88,.86,.09,1.42,.23,1.67,.42,.43,.31,.71,.09,.83-.65,.12-.93,.56-1.24,1.3-.93,.74,.37,1.84,.77,3.29,1.2,1.45,.43,2.46,.77,3.01,1.02,.68,.12,1.1,.26,1.25,.42,.15,.15,.2,.39,.14,.69,0,.12,.03,.19,.09,.19,2.1,.25,3.52,.19,4.26-.19,.56-.31,.56-.52,0-.65-.31-.06-.59-.22-.83-.46-.06-.06-.12-.15-.19-.28l-.09-.19c.25-.12,.4-.19,.46-.19,.31,.06,.77-.03,1.39-.28,.62-.25,1.14-.34,1.58-.28,.62,.06,1.33-.31,2.13-1.11,1.48-1.42,2.93-1.85,4.36-1.3,.62,.25,1.02,.34,1.21,.28,1.61-.06,2.9,.25,3.89,.93,.43,.25,1.3,.46,2.6,.65,1.79,.19,3.64,1.3,5.56,3.34-.18,.5,0,1.24,.56,2.22Zm-30.12,22.71v-7.14c-.12-.49-.25-.74-.37-.74-.37,0-.59,.22-.65,.65-.06,.12-.09,.65-.09,1.58v6.67c-.06,.74,.03,1.81,.28,3.2,.25,1.39,.34,2.46,.28,3.2,0,.31,.12,.43,.37,.37,.12,0,.19-.12,.19-.37v-7.42Z"/><g><path class="n" d="M200.84,46.78c.59,13.86-7.96,21.97-20.35,19.73-8.63-1.56-19.1-7.54-21.29-18.83-1.68-8.64,2.88-18.14,21.02-18.12,18.28,.02,20.24,8.37,20.62,17.22Z"/><g><g><path class="u" d="M183.26,27.52s3.1,1.11,5.61,1.19c1.08,.03,2.73-.15,3.6-.31,.76-.14,1.48-.42,1.48-.42,0,0-.16,.95-2.34,1.81-1.51,.59-3.2,.78-4.15,.78l-4.7-.47"/><path class="ad" d="M183.29,27.43c3.34,1.31,7.2,1.66,10.62,.45,.21-.06,.22-.16,.13,.1-.23,.66-.77,1.02-1.29,1.34-1.61,.91-3.47,1.28-5.31,1.32l-4.7-.47,.02-.19,4.7,.47c2.08-.13,5.23-.51,6.39-2.51l.13,.1c-1.73,.62-3.59,.76-5.41,.71-1.84-.11-3.58-.68-5.34-1.16l.06-.18h0Z"/></g><g><path class="t" d="M180.62,27.23l-1.11,.07c-1.17,.04-2.09,.09-2.79,.14-1.63,.12-3.21,.6-4.59,1.45-.34,.21-.68,.44-1,.69-1.84,1.46-1.71,2.41-1.71,2.41,0,0,.6-.48,1.29-.84,.78-.41,2.3-1.1,3.35-1.35,2.09-.5,3.34-.36,3.34-.36l3.94,.13"/><path class="ad" d="M180.63,27.27c-3.12,.15-6.75,.1-9.27,2.25-.79,.61-1.75,1.43-1.85,2.46l-.15-.06c2.3-1.66,5.21-2.69,8.04-2.57l3.94,.13v.19c-1.49,0-4.62-.29-6.05,0-2.13,.35-4.23,1.21-5.95,2.52l-.02-.17c.01-.62,.37-1.09,.72-1.51,1.85-2.03,4.61-3.12,7.33-3.14l3.25-.16v.09h0Z"/></g><g><path class="aa" d="M179.33,28.36c-1.01,.69-3.17,1.62-4.34,2.43-1.04,.72-2.16,1.72-2.56,3.1s-.28,1.88,.58,.81c.72-.91,2.26-2.19,3.88-3.04,1.42-.74,2.06-1.16,2.59,.85s.59,2.51,.87,3.82c.74-1.45,1.11-2.61,1.17-4.86,.06-.84,.11-1.37,1.9-.74,0,0,4.36,1.53,6.56,3.48-.43-1.67-1.86-3.47-4.27-4.85-.75-.42-1.08-.56-1.58-.87"/><path class="ad" d="M179.33,28.36c-2.63,1.81-7.05,2.99-7,6.83,.13,.05,.36-.25,.47-.36,1.45-1.71,3.35-3.14,5.48-3.86,.59-.12,.96,.48,1.12,.95,.47,1.43,.74,2.91,1.05,4.37l-.18-.02c.59-1.11,.98-2.31,1.08-3.57,.18-.67-.19-1.89,.53-2.3,.17-.07,.35-.06,.51-.05,1.56,.31,3,1.05,4.43,1.72,1.13,.57,2.25,1.21,3.22,2.05l-.15,.09c-.69-2.84-3.42-4.36-5.76-5.74,1.27,.62,2.55,1.24,3.59,2.21,1.11,1.02,2.08,2.27,2.43,3.77-2.23-1.85-4.99-3.18-7.78-3.92-1.13-.15-.63,1.48-.83,2.18-.11,1.27-.51,2.52-1.1,3.63l-.12,.23-.05-.25c-.31-1.46-.57-2.94-1.04-4.35-.15-.44-.44-.95-.93-.84-2.04,.74-3.98,2.09-5.38,3.79-.18,.16-.42,.57-.7,.35-.24-3.91,4.35-5.34,7.12-6.93h0Z"/></g><g><path class="ab" d="M180.49,29.08c.04-1.95,.14-2.44,.74-3.98,.68-1.74,2.63-2.56,3.46-2.88s2.98-.11,1.07,1.12c-1.29,.83-2.57,1.11-2.48,5.85"/><path class="ad" d="M180.49,29.08c-.17-2.3,.49-4.99,2.63-6.2,.69-.39,1.39-.81,2.2-.88,1.12-.1,1.91,.46,.68,1.3-.65,.45-1.38,.77-1.8,1.41-.85,1.3-.74,2.97-.91,4.48-.13-1.55-.13-3.24,.74-4.6,.57-.87,1.61-1.12,2.28-1.82,.12-.14,.18-.3,.07-.39-1-.57-2.26,.13-3.16,.65-2.16,1.19-2.59,3.8-2.72,6.05h0Z"/></g></g><path class="v" d="M166.14,41.49c-1,2.18-2.18,8.88,1.73,12.42,1.27,1.15,3.61,1.7,3.61,1.7,0,0,.16-1.38-.99-3.61-1.64-3.18-1.45-6.3-1.01-8.5,.34-1.69,1.25-3.44,1.98-4.63,1.15-1.89,.74-2.73,.74-2.73,0,0-4.15,1.16-6.08,5.35Z"/></g><path class="ad" d="M268.77,63.74c.56,1.61,.15,3.09-1.21,4.45-.43,.43-.76,.74-.97,.93-.22,.19-.45,.36-.7,.51-.25,.16-.46,.29-.65,.42-.37,.43-.9,.48-1.58,.14-.68-.34-1.11-.48-1.3-.42-.37,.06-.71,0-1.02-.19-.31-.19-.51-.32-.6-.42s-.32-.39-.7-.88c-1.3-1.73-1.89-3.43-1.76-5.1,0-.31-.12-.74-.37-1.3-.25-.56-.34-1.02-.28-1.39,.06-.31,.06-1.17,0-2.6,0-.37,.15-.93,.46-1.67,.8-1.85,1.21-3.49,1.21-4.91-.06-.8,.03-2.02,.28-3.66,.25-1.64,.34-2.89,.28-3.75,0-.31-.11-.83-.32-1.58-.22-.74-.29-1.3-.23-1.67,.06-.37,.05-.74-.05-1.11-.09-.37-.2-.74-.33-1.11-.12-.37-.19-.71-.19-1.02,0-.25-.05-.39-.14-.42-.09-.03-.23,.02-.42,.14-2.29,.99-3.89,2.53-4.82,4.63-.99,2.22-2.07,4.05-3.24,5.47-.43,.5-.76,1.05-.97,1.67-.22,.62-.42,1.34-.6,2.18-.19,.83-.31,1.41-.37,1.71-.12,.19-.17,.42-.14,.69,.03,.28,.08,.5,.14,.65,.06,.15,.14,.39,.23,.7,.09,.31,.14,.56,.14,.74,1.24,4.63,.74,8.78-1.48,12.42-.62,1.11-1.51,1.7-2.69,1.76-1.92,.12-3.37,.43-4.36,.93-.5,.25-1.41,.16-2.73-.28-1.33-.43-2.12-.86-2.36-1.3-.12-.25-.37-.66-.74-1.25-.37-.59-.65-1.05-.83-1.39-.19-.34-.39-.77-.6-1.3-.22-.52-.37-1.05-.46-1.58-.09-.52-.14-1.03-.14-1.53-.37-.56-.54-1.42-.51-2.6,.03-1.17-.14-2.04-.51-2.6-.06,0-.06-.15,0-.46-.06-.43,.03-.99,.28-1.67,.25-.68,.34-1.21,.28-1.58-.12-1.48,0-2.6,.37-3.34,.19-.37,.31-1.03,.37-1.99,.06-.96,.12-1.53,.19-1.71,.06-.56,.11-1.61,.14-3.15,.03-1.54,.17-2.72,.42-3.52,.25-.68,.19-1.14-.19-1.39-.06-.06-.37,.19-.93,.74-2.35,2.29-3.99,4.26-4.91,5.93-1.24,2.16-2.54,5.25-3.89,9.27-.06,.31-.11,.65-.14,1.02-.03,.37-.05,.77-.05,1.21v.83c.18,1.85-.31,4.6-1.48,8.25-.19,.74-.56,1.39-1.11,1.95-.56,.56-.99,.91-1.3,1.07l-1.95,.97c-.37,.19-.76,.29-1.16,.32-.4,.03-.76,.02-1.07-.05-.31-.06-.68-.14-1.11-.23-.43-.09-.77-.14-1.02-.14s-.5-.09-.74-.28c-.25-.19-.48-.42-.7-.7-.22-.28-.37-.54-.46-.79-.09-.25-.23-.6-.42-1.07-.19-.46-.36-.88-.51-1.25-.16-.37-.26-.77-.32-1.21-.12-.8-.28-2.5-.46-5.1-.06-.37-.05-.76,.05-1.16,.09-.4,.15-.63,.19-.7,.03-.06,.2-.34,.51-.83,.93-1.61,1.39-2.84,1.39-3.71,0-.8,.06-1.73,.19-2.78,.12-1.05,.25-2.1,.37-3.15,.12-1.05,.15-2.01,.09-2.87-.06-.56-.17-1.36-.32-2.41-.16-1.05-.23-1.76-.23-2.13-.06-.31-.08-.76-.05-1.34,.03-.59,.01-1.13-.05-1.62-.06-.49-.22-.93-.46-1.3v-.28c.06-1.05-.05-2.64-.32-4.77-.28-2.13-.36-3.75-.23-4.87l.56-1.85c.12-.56,.43-.68,.93-.37,.62,.43,1.67,.82,3.15,1.16,1.48,.34,2.56,.79,3.24,1.34,.74,.06,1.36,.36,1.85,.88,.49,.53,.8,1.01,.93,1.44,.12,.43,.28,1.05,.46,1.85,.49,3.15-.28,6.02-2.32,8.62-.37,.43-.99,1.48-1.85,3.15-.62,1.11-.99,2.47-1.11,4.08v5.1c0,.19,.01,.37,.05,.56s.08,.36,.14,.51c.06,.16,.12,.34,.19,.56,.06,.22,.12,.39,.18,.51,.12,.56,.36,.88,.7,.97,.34,.09,.66-.08,.97-.51,.19-.25,.4-.62,.65-1.11,.25-.49,.43-.83,.56-1.02l.09-.09c.18-.43,.4-.56,.65-.37,.06,.06,.11,.19,.14,.37,.03,.19,.01,.31-.05,.37-.12,.25-.23,.53-.32,.83-.09,.31-.19,.62-.28,.93-.09,.31-.23,.59-.42,.83-.06,0-.08,.09-.05,.28,.03,.19,.08,.31,.14,.37,.12,0,.31-.09,.56-.28,.37-.12,.62-.12,.74,0,.06,.12-.03,.31-.28,.56-.06,.43-.09,.77-.09,1.02l.28,.37c.19-.19,.28-.31,.28-.37,.19-.43,1-2.13,2.46-5.1,1.45-2.97,2.58-5.22,3.38-6.77,.25-.56,.59-1.14,1.02-1.76,0-.06,.06-.15,.19-.28,.12-.12,.22-.22,.28-.28,.06-.06,.09-.15,.09-.28s-.06-.25-.19-.37c-.12-.06-.23-.06-.32,0-.09,.06-.2,.19-.33,.37-.12,.19-.22,.28-.28,.28-.19,.19-.31,.22-.37,.09-.12-.19-.16-.34-.09-.46,.06-.19,.15-.4,.28-.65,.12-.25,.26-.48,.42-.7,.15-.22,.26-.42,.32-.6,.06-.12,.03-.28-.09-.46-.06-.12-.19-.09-.37,.09-.12,.12-.31,.31-.56,.56-.25,.25-.43,.43-.56,.56-.19,.19-.33,.22-.42,.09-.09-.12-.14-.28-.14-.46,0-.43,.03-.68,.09-.74,.37-.56,.86-1.51,1.48-2.87,.62-1.36,1.2-2.35,1.76-2.97,.19-.25,.32-.65,.42-1.2s.26-.93,.51-1.11c0-.49-.03-.83-.09-1.02-.06-.19-.02-.52,.14-1.02,.15-.49,.26-.82,.32-.97,.06-.15,.19-.46,.37-.93,.19-.46,.31-.76,.37-.88,.8-1.91,1.14-3.37,1.02-4.36,0-.19,.05-.31,.14-.37,.09-.06,.23-.09,.42-.09,.25,.06,.37,.12,.37,.19,.06,.68,.4,.83,1.02,.46,.06-.06,.09-.01,.09,.14s.03,.31,.09,.46c.06,.16,.19,.23,.37,.23,.06,0,.19-.06,.37-.19,.19-.12,.34-.22,.46-.28,.25,0,.49,.03,.74,.09,.25,.06,.51,.17,.79,.32,.28,.15,.48,.26,.6,.32,.25,.06,.59,.19,1.02,.37,.43,.19,.83,.32,1.21,.42s.74,.17,1.11,.23c.86,0,1.51,.9,1.95,2.69,0,.12,.19,.37,.56,.74,.37,.43,.49,.74,.37,.93-.31,.31-.5,.67-.56,1.07-.06,.4-.06,.91,0,1.53,.06,.62,.09,.99,.09,1.11,0,.99-.28,1.95-.83,2.87-1.17,2.22-1.92,3.49-2.22,3.8-.25,.25-.43,.51-.56,.79-.12,.28-.23,.6-.32,.97s-.17,.62-.23,.74c-.37,.8-.62,2.43-.74,4.87-.12,2.44-.09,4,.09,4.68,.06,.31,.19,.7,.37,1.16s.34,.9,.46,1.3c.12,.4,.22,.79,.28,1.16,0,.12,.06,.2,.19,.23,.12,.03,.22-.01,.28-.14,.12-.43,.43-.62,.93-.56,.49,.06,.8-.03,.93-.28,.12-.37,.39-.77,.79-1.21,.4-.43,.63-.71,.7-.83,.25-.37,.59-1.14,1.02-2.32,1.79-4.7,3.37-8.28,4.73-10.75,.37-.62,.74-1.56,1.11-2.83,.37-1.27,.68-2.15,.93-2.64,.12-.19,.12-.37,0-.56,0-.12-.08-.34-.23-.65-.16-.31-.26-.54-.32-.7-.06-.15-.08-.35-.05-.6,.03-.25,.14-.46,.32-.65,.19-.25,.29-.68,.32-1.3,.03-.62,.17-1.08,.42-1.39,.19-.12,.28-.34,.28-.65s-.03-.7-.09-1.16c-.06-.46-.09-.79-.09-.97,0-.31,.06-.46,.19-.46s.25,.16,.37,.46c.25,.56,.77,.87,1.58,.93,.19,0,.48-.09,.88-.28,.4-.19,.73-.25,.97-.19,.12,0,.19-.12,.19-.37,.06-.62,.12-.97,.19-1.07,.06-.09,.34-.14,.83-.14,.56-.06,1.36,.15,2.41,.65,.49,.25,1.24,.54,2.22,.88,.99,.34,1.61,.54,1.85,.6,.93,.37,1.67,1.17,2.22,2.41,.62,1.3,1.11,2.94,1.48,4.91,.31,1.67-.28,3.83-1.76,6.49-.62,1.11-.9,2.13-.83,3.06,0,.43-.02,1.55-.05,3.34-.03,1.79-.02,2.91,.05,3.34,.31,2.72,.9,5.28,1.76,7.69,.25,.8,.63,2.02,1.16,3.66,.52,1.64,.94,2.86,1.25,3.66Zm-54.04-16.13c.25-.86,.37-2.1,.37-3.71s.03-2.53,.09-2.78c0-.25-.06-.4-.19-.46-.19,0-.31,.09-.37,.28v.19c-.31,.74-.65,2.29-1.02,4.63-.06,.19-.09,1.51-.09,3.99s.03,4.02,.09,4.82l.19,.37,.46-.37c.25-.19,.37-.68,.37-1.48,0-.37-.03-.94-.09-1.71-.06-.77-.08-1.47-.05-2.09,.03-.62,.11-1.17,.23-1.67Zm20.95,2.97c.19,0,.26-.45,.23-1.34-.03-.9-.05-1.37-.05-1.44,0-.25,.12-.83,.37-1.76,.25-.93,.31-1.67,.19-2.22-.06-.19-.08-.39-.05-.6,.03-.22,.05-.42,.05-.6s-.06-.28-.19-.28c-.25,.06-.36,.26-.32,.6,.03,.34,.01,.6-.05,.79-.25,.43-.4,.9-.46,1.39-.06,.5-.08,.94-.05,1.34,.03,.4,.01,.85-.05,1.34,.06,.19,.06,.65,0,1.39-.06,.74,.06,1.21,.37,1.39Zm13.81-8.44c.25-.43,.28-.71,.09-.83-.25-.19-.5-.03-.74,.46-1.73,3.34-2.78,5.47-3.15,6.4-.87,2.22-1.3,3.71-1.3,4.45,0,.37,.09,.59,.28,.65,.06,.06,.17-.01,.32-.23,.15-.22,.26-.23,.32-.05,.06,.06,.09,.5,.09,1.3v.42c0,.22,.03,.36,.09,.42l.28,.28,.18-.37c.68-2.53,1.33-4.39,1.95-5.56,.12-.19,.37-.96,.74-2.32,.06-.37-.03-.59-.28-.65-.06-.06-.12-.03-.19,.09l-.19,.19c-.31,.31-.46,.62-.46,.93l-.28,.28-.19-.46c-.06-.37,.03-.77,.28-1.2,.31-.49,.7-1.22,1.16-2.18,.46-.96,.79-1.62,.97-1.99Zm13.44,10.66c.06-.06,.09-.43,.09-1.11v-7.97c.06-.43-.03-1.05-.28-1.85-.25-.8-.34-1.42-.28-1.85l-.28-.46-.28,.37c.12,.87,.08,2.12-.14,3.75-.22,1.64-.36,2.61-.42,2.92,0,.62,.12,1.61,.37,2.97,.25,1.36,.34,2.41,.28,3.15,0,.12-.03,.36-.09,.69-.06,.34-.09,.59-.09,.74s.03,.36,.09,.6c.06,.25,.18,.46,.37,.65,.06-.19,.11-.4,.14-.65,.03-.25,.06-.48,.09-.7,.03-.22,.08-.43,.14-.65,.06-.22,.15-.42,.28-.6Z"/><path class="ad" d="M311.03,59.29c.25,.43,.42,.76,.51,.97,.09,.22,.19,.51,.28,.88s.09,.73,0,1.07c-.09,.34-.26,.7-.51,1.07-.12,.19-.16,.39-.09,.6,.06,.22,.08,.45,.05,.7-.03,.25-.17,.4-.42,.46-.43,.06-.63,.29-.6,.7,.03,.4,.01,.63-.05,.69-.25,.06-.46,.14-.65,.23-.19,.09-.34,.25-.46,.46-.12,.22-.22,.39-.28,.51-.06,.12-.15,.32-.28,.6-.12,.28-.18,.48-.18,.6-.19,.37-.46,.53-.83,.46-.68-.06-1.7,.05-3.06,.32-1.36,.28-2.41,.36-3.15,.23-1.05-.06-2.61,.06-4.68,.37-2.07,.31-3.57,.37-4.5,.19h-4.63c-.5,0-2.01-.22-4.54-.65-.99-.19-2.59-1.02-4.82-2.5-.68-.49-1.27-1.08-1.76-1.76-.5-.68-1.02-1.56-1.58-2.64-.56-1.08-.93-1.81-1.11-2.18,0-.56-.16-1.67-.46-3.34-.31-1.67-.34-2.97-.09-3.89,.25-1.17,.77-2.19,1.58-3.06,.12-.19,.46-.52,1.02-1.02,.56-.49,.96-.9,1.21-1.21,1.54-1.85,3.68-3.12,6.4-3.8,.19,0,.38-.08,.6-.23,.22-.15,.43-.26,.65-.32,.22-.06,.42-.06,.6,0,.12,.06,.26,.08,.42,.05,.15-.03,.29-.05,.42-.05s.19,.06,.19,.19c0,.19-.05,.29-.14,.32-.09,.03-.23,.03-.42,0-.19-.03-.31-.01-.37,.05-1.54,.68-3.06,1.55-4.54,2.6l-.19,.37,.46,.19c.12,0,.28-.06,.46-.19,1.36-.93,3.49-1.54,6.4-1.85,.25-.06,.6-.17,1.07-.32,.46-.15,.82-.26,1.07-.32,.25-.06,.62-.06,1.11,0,.18,.06,.31,.03,.37-.09,.19-.43,.42-.76,.7-.97,.28-.22,.57-.34,.88-.37,.31-.03,.65-.06,1.02-.09,.37-.03,.74-.05,1.11-.05h.19c.25,0,.38-.01,.42-.05,.03-.03-.05-.23-.23-.6-.12-.12-.03-.25,.28-.37h.19c.68-.06,1.88,.22,3.62,.83,.49,.19,.8,.23,.93,.14,.12-.09,.15-.39,.09-.88-.25-1.73-.67-3.12-1.25-4.17-.59-1.05-1.59-1.82-3.01-2.32-.19-.06-.56-.26-1.11-.6-.56-.34-1.02-.51-1.39-.51-1.24,0-2.38,.28-3.43,.83-2.66,1.36-4.85,1.98-6.58,1.85-2.59-.12-4.23-1.27-4.91-3.43-.93-3.09-1.3-5.56-1.11-7.42,0-.37,.06-.62,.19-.74,.31-.43,.97-.76,1.99-.97,1.02-.22,1.71-.14,2.09,.23s1.02,.59,1.95,.65c.99,.12,2.41,.06,4.26-.19,1.85-.25,3.18-.37,3.99-.37l.37-.28c-.25-.12-.4-.19-.46-.19-.31-.06-.5-.19-.56-.37,0-.06,.15-.12,.46-.19,.25-.06,.43-.06,.56,0,.49,.31,1.05,.57,1.67,.79,.62,.22,1.21,.39,1.76,.51,.56,.12,1.16,.28,1.81,.46,.65,.19,1.22,.4,1.71,.65,1.67,.8,2.98,1.61,3.94,2.41,.96,.8,1.75,1.79,2.36,2.97,.62,1.17,1.17,2.75,1.67,4.73,.12,.5,.34,1.52,.65,3.06,.31,1.55,.62,2.69,.93,3.43,.12,.37,.06,.71-.19,1.02-.74,1.05-.83,2.22-.28,3.52,.37,.87,.49,1.89,.37,3.06-.06,.56-.03,1.17,.09,1.85,.12,.68,.26,1.38,.42,2.09,.15,.71,.2,1.34,.14,1.9,0,.25,.08,.53,.23,.83,.15,.31,.35,.65,.6,1.02,.25,.37,.4,.65,.46,.83Zm-9.08,5.28c.25-.19,.34-.4,.28-.65,0-.31-.15-.46-.46-.46h-1.02c-.31,0-.46-.03-.46-.09-.06-.25,.03-.37,.28-.37,.06,0,.09-.03,.09-.09,.37-.06,.66-.22,.88-.46,.22-.25,.26-.49,.14-.74-.25-.31-.37-.77-.37-1.39s-.06-1.05-.19-1.3c-.25-.37-.37-.88-.37-1.53s-.03-1.13-.09-1.44c-.25-.56-.43-1.27-.56-2.13-.06-.56-.46-.93-1.21-1.11-1.3-.25-2.32-.59-3.06-1.02-1.17-.74-2.72-1.11-4.63-1.11-1.3,.06-2.41,.56-3.34,1.48-1.85,1.85-3.06,3.03-3.62,3.52-.74,.68-1.14,1.58-1.21,2.69,0,1.67,.52,2.91,1.58,3.71,.12,.12,.32,.31,.6,.56,.28,.25,.54,.46,.79,.65,.25,.19,.52,.34,.83,.46,.06,0,.17,.08,.32,.23,.15,.15,.2,.26,.14,.32-.06,.19-.34,.28-.83,.28s-.71,.19-.65,.56c0,.06-.02,.17-.05,.32-.03,.15-.03,.28,0,.37,.03,.09,.11,.17,.23,.23,.68,.37,1.08,.53,1.21,.46,.25-.31,.56-.34,.93-.09,.37,.25,.68,.34,.93,.28h2.78c.31,.12,.73,.17,1.25,.14,.52-.03,.97-.09,1.34-.19,.37-.09,.83-.2,1.39-.32,.56-.12,1.02-.22,1.39-.28,1.73-.19,3.3-.68,4.73-1.48Z"/><path class="ad" d="M339.58,65.87c.06,.5,.08,.82,.05,.97-.03,.15-.14,.42-.32,.79-.19,.37-.31,.63-.37,.79-.06,.15-.14,.29-.23,.42-.09,.12-.22,.23-.37,.32-.16,.09-.26,.16-.32,.19-.06,.03-.34,.08-.83,.14h-5.01c-.5,0-.87,.02-1.11,.05-.25,.03-.5,.15-.74,.37-.25,.22-.43,.54-.56,.97,0,.12-.05,.25-.14,.37-.09,.12-.2,.23-.32,.32-.12,.09-.28,.11-.46,.05-.56-.06-1.05-.06-1.48,0-.43,.06-.91,.08-1.44,.05-.53-.03-1-.17-1.44-.42-.19-.06-.39-.11-.6-.14-.22-.03-.4-.05-.56-.05s-.36,.02-.6,.05c-.25,.03-.43,.05-.56,.05-1.73-.12-2.81-.9-3.24-2.32-.12-.31-.25-.76-.37-1.34-.12-.59-.22-1-.28-1.25-.37-1.36,.15-2.01,1.58-1.95,.43,0,.69-.05,.79-.14,.09-.09,.08-.26-.05-.51-.12-.25-.22-.4-.28-.46v-1.39c.12-1.17-.03-2.25-.46-3.24-.12-.19-.12-.34,0-.46,.31-.49,.46-1.24,.46-2.22s.09-1.73,.28-2.22c.25-.43,.34-.83,.28-1.21-.19-1.36,.03-4.05,.65-8.06,.19-.99,.29-2.41,.32-4.26,.03-1.85,.08-3.09,.14-3.71,0-.37-.06-.6-.19-.7-.12-.09-.37-.17-.74-.23-.25,0-.65,.02-1.2,.05-.56,.03-1.04,.02-1.44-.05-.4-.06-.79-.22-1.16-.46-.56-.37-.96-.74-1.21-1.11-1.17-2.1-1.7-4.57-1.58-7.42,0-.37,.22-.56,.65-.56,.93,.12,1.42,.22,1.48,.28,.56,.31,1.37,.54,2.46,.7,1.08,.15,1.87,.36,2.36,.6,.31,.19,.49-.03,.56-.65,0-.25-.11-.63-.33-1.16-.22-.52-.32-.94-.32-1.25,.19-1.24,.03-2.04-.46-2.41,.12-.74,.06-1.78-.19-3.11-.25-1.33-.37-2.27-.37-2.83,0-.8,.32-1.05,.97-.74,.65,.31,1.4,.6,2.27,.88,.86,.28,1.73,.54,2.6,.79,.86,.25,1.64,.56,2.32,.93,1.67,.93,2.66,2.5,2.97,4.73,.19,1.05,.06,1.89-.37,2.5-.25,.37-.25,.76,0,1.16,.25,.4,.62,.6,1.11,.6,.56,.06,1.08,.17,1.58,.32,.49,.15,1.08,.39,1.76,.7,.68,.31,1.14,.53,1.39,.65,.68,.25,1.17,.71,1.48,1.39,.06,.12,.09,.29,.09,.51v.56c0,.15,.03,.32,.09,.51,.06,.19,.19,.37,.37,.56-.43,.25-.8,.8-1.11,1.67-.31,.87-.71,1.39-1.21,1.58-1.61,.8-2.87,.87-3.8,.19-.25-.12-.93-.12-2.04,0-.25,0-.57-.12-.97-.37-.4-.25-.73-.31-.97-.19h-.7c-.09,0-.17,.06-.23,.19-.06,.12-.12,.28-.19,.46,0,.12-.08,.37-.23,.74-.16,.37-.23,.68-.23,.93v2.73c0,.34-.05,.76-.14,1.25-.09,.5-.2,.96-.32,1.39-.37,1.05-.28,1.89,.28,2.5,.19,.12,.25,.43,.19,.93-.12,.62-.03,1.55,.28,2.78,.31,1.24,.4,2.19,.28,2.87-.06,.06,.06,.37,.37,.93,.25,.43,.49,1.39,.74,2.87,.37,2.29,1.05,4.67,2.04,7.14,.25,.62,.56,.71,.93,.28,.37-.43,.87-.56,1.48-.37,.37,.12,.86,.26,1.48,.42,.62,.15,1.21,.31,1.76,.46,.56,.15,1.05,.32,1.48,.51,.62,.31,1.11,.93,1.48,1.85Zm-14.46-25.03c-.12-1.05-.12-1.64,0-1.76,.31-.43,.49-.9,.56-1.39,.06-.49,.06-.94,0-1.34-.06-.4-.06-.85,0-1.34,0-.25-.06-.4-.19-.46-.12-.06-.28-.09-.46-.09-.31,.06-.46,.25-.46,.56,.06,.93-.05,2.46-.32,4.59s-.36,3.79-.23,4.96c.06,.06,.09,.68,.09,1.85,0,3.65-.03,5.84-.09,6.58,0,.37,.12,.53,.37,.46,.12,0,.19-.12,.19-.37-.06-1.3,.05-3.31,.32-6.02,.28-2.72,.36-4.79,.23-6.21Z"/><path class="ad" d="M396.58,59.29c.25,.43,.42,.76,.51,.97,.09,.22,.19,.51,.28,.88s.09,.73,0,1.07c-.09,.34-.26,.7-.51,1.07-.12,.19-.16,.39-.09,.6,.06,.22,.08,.45,.05,.7-.03,.25-.17,.4-.42,.46-.43,.06-.63,.29-.6,.7,.03,.4,.01,.63-.05,.69-.25,.06-.46,.14-.65,.23-.19,.09-.34,.25-.46,.46-.12,.22-.22,.39-.28,.51-.06,.12-.15,.32-.28,.6-.12,.28-.18,.48-.18,.6-.19,.37-.46,.53-.83,.46-.68-.06-1.7,.05-3.06,.32-1.36,.28-2.41,.36-3.15,.23-1.05-.06-2.61,.06-4.68,.37-2.07,.31-3.57,.37-4.5,.19h-4.63c-.5,0-2.01-.22-4.54-.65-.99-.19-2.59-1.02-4.82-2.5-.68-.49-1.27-1.08-1.76-1.76-.5-.68-1.02-1.56-1.58-2.64-.56-1.08-.93-1.81-1.11-2.18,0-.56-.16-1.67-.46-3.34-.31-1.67-.34-2.97-.09-3.89,.25-1.17,.77-2.19,1.58-3.06,.12-.19,.46-.52,1.02-1.02,.56-.49,.96-.9,1.21-1.21,1.54-1.85,3.68-3.12,6.4-3.8,.19,0,.38-.08,.6-.23,.22-.15,.43-.26,.65-.32,.22-.06,.42-.06,.6,0,.12,.06,.26,.08,.42,.05,.15-.03,.29-.05,.42-.05s.19,.06,.19,.19c0,.19-.05,.29-.14,.32-.09,.03-.23,.03-.42,0-.19-.03-.31-.01-.37,.05-1.54,.68-3.06,1.55-4.54,2.6l-.19,.37,.46,.19c.12,0,.28-.06,.46-.19,1.36-.93,3.49-1.54,6.4-1.85,.25-.06,.6-.17,1.07-.32,.46-.15,.82-.26,1.07-.32,.25-.06,.62-.06,1.11,0,.18,.06,.31,.03,.37-.09,.19-.43,.42-.76,.7-.97,.28-.22,.57-.34,.88-.37,.31-.03,.65-.06,1.02-.09,.37-.03,.74-.05,1.11-.05h.19c.25,0,.38-.01,.42-.05,.03-.03-.05-.23-.23-.6-.12-.12-.03-.25,.28-.37h.19c.68-.06,1.88,.22,3.62,.83,.49,.19,.8,.23,.93,.14,.12-.09,.15-.39,.09-.88-.25-1.73-.67-3.12-1.25-4.17-.59-1.05-1.59-1.82-3.01-2.32-.19-.06-.56-.26-1.11-.6-.56-.34-1.02-.51-1.39-.51-1.24,0-2.38,.28-3.43,.83-2.66,1.36-4.85,1.98-6.58,1.85-2.59-.12-4.23-1.27-4.91-3.43-.93-3.09-1.3-5.56-1.11-7.42,0-.37,.06-.62,.19-.74,.31-.43,.97-.76,1.99-.97,1.02-.22,1.71-.14,2.09,.23s1.02,.59,1.95,.65c.99,.12,2.41,.06,4.26-.19,1.85-.25,3.18-.37,3.99-.37l.37-.28c-.25-.12-.4-.19-.46-.19-.31-.06-.5-.19-.56-.37,0-.06,.15-.12,.46-.19,.25-.06,.43-.06,.56,0,.49,.31,1.05,.57,1.67,.79,.62,.22,1.21,.39,1.76,.51,.56,.12,1.16,.28,1.81,.46,.65,.19,1.22,.4,1.71,.65,1.67,.8,2.98,1.61,3.94,2.41,.96,.8,1.75,1.79,2.36,2.97,.62,1.17,1.17,2.75,1.67,4.73,.12,.5,.34,1.52,.65,3.06,.31,1.55,.62,2.69,.93,3.43,.12,.37,.06,.71-.19,1.02-.74,1.05-.83,2.22-.28,3.52,.37,.87,.49,1.89,.37,3.06-.06,.56-.03,1.17,.09,1.85,.12,.68,.26,1.38,.42,2.09,.15,.71,.2,1.34,.14,1.9,0,.25,.08,.53,.23,.83,.15,.31,.35,.65,.6,1.02,.25,.37,.4,.65,.46,.83Zm-9.08,5.28c.25-.19,.34-.4,.28-.65,0-.31-.15-.46-.46-.46h-1.02c-.31,0-.46-.03-.46-.09-.06-.25,.03-.37,.28-.37,.06,0,.09-.03,.09-.09,.37-.06,.66-.22,.88-.46,.22-.25,.26-.49,.14-.74-.25-.31-.37-.77-.37-1.39s-.06-1.05-.19-1.3c-.25-.37-.37-.88-.37-1.53s-.03-1.13-.09-1.44c-.25-.56-.43-1.27-.56-2.13-.06-.56-.46-.93-1.21-1.11-1.3-.25-2.32-.59-3.06-1.02-1.17-.74-2.72-1.11-4.63-1.11-1.3,.06-2.41,.56-3.34,1.48-1.85,1.85-3.06,3.03-3.62,3.52-.74,.68-1.14,1.58-1.21,2.69,0,1.67,.52,2.91,1.58,3.71,.12,.12,.32,.31,.6,.56,.28,.25,.54,.46,.79,.65,.25,.19,.52,.34,.83,.46,.06,0,.17,.08,.32,.23,.15,.15,.2,.26,.14,.32-.06,.19-.34,.28-.83,.28s-.71,.19-.65,.56c0,.06-.02,.17-.05,.32-.03,.15-.03,.28,0,.37,.03,.09,.11,.17,.23,.23,.68,.37,1.08,.53,1.21,.46,.25-.31,.56-.34,.93-.09,.37,.25,.68,.34,.93,.28h2.78c.31,.12,.73,.17,1.25,.14,.52-.03,.97-.09,1.34-.19,.37-.09,.83-.2,1.39-.32,.56-.12,1.02-.22,1.39-.28,1.73-.19,3.3-.68,4.73-1.48Z"/><g><polygon class="l" points="353.54 34.64 345.13 34.37 349.64 24.83 353.54 34.64"/><g><path class="y" d="M346.56,33.44h0c.77,.02,1.39,.49,1.37,1.05l-.97,30.99-2.8-.09,.97-30.99c.02-.55,.66-.98,1.43-.96Z"/><path class="q" d="M349.37,33.53h0c.77,.02,1.39,.49,1.37,1.05l-.97,30.99-2.8-.09,.97-30.99c.02-.55,.66-.98,1.43-.96Z"/><path class="ac" d="M352.17,33.61h0c.77,.02,1.39,.49,1.37,1.05l-.97,30.99-2.8-.09,.97-30.99c.02-.55,.66-.98,1.43-.96Z"/></g><rect class="a`" x="344.14" y="65.52" width="8.42" height="1.61" transform="translate(2.24 -10.84) rotate(1.79)"/><path class="s" d="M344.05,67.12h8.42v1.5c0,1.41-1.14,2.55-2.55,2.55h-3.32c-1.41,0-2.55-1.14-2.55-2.55v-1.5h0Z" transform="translate(2.33 -10.84) rotate(1.79)"/><polygon class="ad" points="349.64 24.83 348.72 26.79 350.44 26.85 349.64 24.83"/></g></g><polyline class="m" points="346.44 3.91 346.93 3.05 346.23 11.46 351.74 1.9 350.49 9.84 355.54 1.08 352.09 13.45 358.47 2.41"/></svg>