<?xml version="1.0" encoding="UTF-8"?><svg id="a" xmlns="http://www.w3.org/2000/svg" xmlns:xlink="http://www.w3.org/1999/xlink" viewBox="0 0 400.87 72.86"><defs><style>.l{fill:#fdcda0;}.m{fill:none;stroke-linecap:round;stroke-linejoin:round;stroke-width:2.16px;}.m,.n,.o{stroke:#231f20;}.n{fill:url(#g);}.n,.o{stroke-miterlimit:10;stroke-width:.36px;}.p{fill:url(#c);}.q{fill:#f57e20;}.r{fill:url(#f);}.s{fill:#f285b5;}.t{fill:url(#i);}.o{fill:url(#b);}.u{fill:url(#h);}.v{fill:#fff;opacity:.2;}.w{fill:url(#d);}.x{fill:url(#e);}.y{fill:#f99e1d;}.a`{fill:#d1d3d4;}.aa{fill:url(#j);}.ab{fill:url(#k);}.ac{fill:#f16024;}.ad{fill:#231f20;}</style><linearGradient id="b" x1="24.24" y1="42.94" x2="108.8" y2="45.56" gradientTransform="matrix(1, 0, 0, 1, 0, 0)" gradientUnits="userSpaceOnUse"><stop offset="0" stop-color="#ec2326"/><stop offset="1" stop-color="#a8292b"/></linearGradient><linearGradient id="c" x1="54.62" y1="16.8" x2="54.81" y2="44.56" gradientTransform="matrix(1, 0, 0, 1, 0, 0)" gradientUnits="userSpaceOnUse"><stop offset="0" stop-color="#75bc43"/><stop offset="1" stop-color="#178c44"/></linearGradient><linearGradient id="d" x1="42.14" y1="16.88" x2="42.32" y2="44.64" xlink:href="#c"/><linearGradient id="e" x1="47.62" y1="16.85" x2="47.8" y2="44.6" xlink:href="#c"/><linearGradient id="f" x1="50" y1="16.85" x2="50.18" y2="44.53" xlink:href="#c"/><linearGradient id="g" x1="146.14" y1="44.28" x2="230.7" y2="46.9" xlink:href="#b"/><linearGradient id="h" x1="176.52" y1="18.14" x2="176.71" y2="45.9" xlink:href="#c"/><linearGradient id="i" x1="164.03" y1="18.23" x2="164.22" y2="45.99" xlink:href="#c"/><linearGradient id="j" x1="169.51" y1="18.19" x2="169.7" y2="45.95" xlink:href="#c"/><linearGradient id="k" x1="171.89" y1="18.2" x2="172.08" y2="45.88" xlink:href="#c"/></defs><g><path class="ad" d="M42.25,13.79l.23,.3c0,.05-.23,.15-.69,.3-.46,.15-.95,.38-1.48,.69-.53,.3-.9,.48-1.1,.53-1.57,.05-3.83,1.22-6.77,3.5-.36,.3-.57,.51-.65,.61-.08,.1-.19,.2-.34,.3-.51,.1-1.07,.46-1.67,1.07l-1.14,1.14c-.1,.1-.36,.23-.76,.38-1.22,.3-2.51,1.22-3.88,2.74-.46,.51-1.24,1.31-2.36,2.4-1.12,1.09-1.98,2.14-2.59,3.16-.61,1.02-.95,1.62-1.03,1.83-.08,.2-.14,.66-.19,1.37,.41,.2,.75,.32,1.03,.34,.28,.03,.39-.16,.34-.57l-.08-.91c-.05-.41,.05-.58,.3-.53,.61,.2,.93,1.1,.95,2.7,.03,1.6-.44,4.22-1.41,7.88-.96,3.65-1.7,6.09-2.21,7.31-.51,1.22-.77,2.08-.8,2.59-.03,.51-.58,1.7-1.67,3.58-1.09,1.88-1.79,2.94-2.09,3.2-.3,.25-.46,.53-.46,.84l.15,.08-.53-.08c-.46,0-.94,.39-1.45,1.18-.51,.79-.96,1.31-1.37,1.56-.41,.25-.66,.46-.76,.61-.1,.15-.17,.23-.19,.23s-.14-.43-.34-1.29c-.2-.86-.3-2.16-.3-3.88s.3-4.69,.91-8.91c.61-4.21,.91-7.59,.91-10.12s-.18-3.88-.53-4.03c-.56-.15-1.29-.38-2.21-.69l.91-1.29c.56-.81,.84-1.42,.84-1.83,.05-.41,.15-.69,.3-.84-.2-.46-.43-.93-.69-1.41-.25-.48-.39-.89-.42-1.22-.03-.33-.25-.95-.69-1.86-.43-.91-1.26-3.18-2.47-6.81-1.22-3.63-2.16-5.95-2.82-6.97-.66-1.01-.99-1.78-.99-2.28s.48-1.04,1.45-1.6c.25-.15,.41-.61,.46-1.37,.05-.71,.3-1.22,.76-1.52,.46-.3,.81-.48,1.07-.53h.38c2.28,0,3.83,.71,4.64,2.13,.3,.56,.67,.98,1.1,1.26,.43,.28,.95,.86,1.56,1.75,.61,.89,1.1,1.42,1.48,1.6,.38,.18,.79,1.52,1.22,4.03,.43,2.51,1.05,5.09,1.86,7.73,.81,2.64,1.22,4.28,1.22,4.91s.16,.95,.49,.95,1.01-.91,2.06-2.74c1.04-1.83,2.16-3.37,3.35-4.64,1.19-1.27,1.86-1.94,2.02-2.02s.66-.65,1.52-1.71c.86-1.07,1.57-1.85,2.13-2.36,.41-.56,.79-.95,1.14-1.18,.35-.23,.72-.66,1.1-1.29,.38-.63,1.4-1.84,3.04-3.62,1.65-1.78,2.88-2.66,3.69-2.66,.15,0,.32,.05,.49,.15,.18,.1,.66,.22,1.45,.34,.79,.13,1.18,.24,1.18,.34,0,.41-.17,.83-.5,1.26-.33,.43-.49,.74-.49,.91s.19,.42,.57,.72c.38,.3,.57,.66,.57,1.07v.53l.99-.3c.46-.1,.82-.27,1.1-.49,.28-.23,.52-.37,.72-.42,.2-.05,.28,.03,.23,.23,0,.2-.3,.49-.91,.88-.61,.38-.91,.65-.91,.8Zm-30.3-3.88c-.36,0-.71-.37-1.07-1.1-.36-.73-.53-1.15-.53-1.26s.1-.15,.3-.15,.48,.37,.84,1.1c.35,.74,.53,1.16,.53,1.26s-.03,.15-.08,.15Z"/><g><path class="o" d="M66.7,42.32c.57,13.33-7.66,21.14-19.57,18.98-8.3-1.5-18.37-7.25-20.48-18.11-1.61-8.31,2.77-17.45,20.22-17.43,17.59,.02,19.48,8.06,19.84,16.57Z"/><g><g><path class="p" d="M49.79,23.8s2.99,1.07,5.4,1.14c1.04,.03,2.63-.15,3.46-.3,.73-.14,1.42-.41,1.42-.41,0,0-.15,.92-2.25,1.74-1.46,.57-3.08,.75-3.99,.75l-4.52-.45"/><path class="ad" d="M49.82,23.71c3.21,1.26,6.92,1.6,10.21,.43,.2-.06,.21-.16,.12,.1-.22,.63-.74,.98-1.24,1.29-1.55,.87-3.34,1.23-5.1,1.27l-4.52-.45,.02-.18,4.52,.45c2.03-.13,5.01-.47,6.15-2.41l.12,.1c-.83,.32-1.71,.48-2.58,.57-2.64,.43-5.25-.25-7.76-1l.06-.17h0Z"/></g><g><path class="w" d="M47.25,23.52l-1.07,.07c-1.13,.04-2.01,.08-2.69,.13-1.56,.11-3.08,.57-4.42,1.4-.33,.2-.65,.43-.96,.67-1.77,1.4-1.65,2.32-1.65,2.32,0,0,.58-.46,1.24-.81,.75-.39,2.21-1.06,3.22-1.3,2.01-.48,3.22-.35,3.22-.35l3.79,.12"/><path class="ad" d="M47.26,23.56c-2.99,.15-6.51,.1-8.92,2.16-.76,.58-1.69,1.38-1.78,2.37l-.15-.06c2.21-1.6,5.02-2.59,7.74-2.47l3.79,.12v.18c-1.43,0-4.45-.28-5.82,0-2.05,.34-4.07,1.16-5.72,2.42l-.02-.16c.01-.6,.36-1.05,.69-1.46,1.78-1.95,4.43-3,7.05-3.02l3.13-.16v.08h0Z"/></g><g><path class="x" d="M46.01,24.61c-.98,.66-3.05,1.56-4.18,2.34-1,.69-2.08,1.65-2.46,2.98s-.27,1.81,.55,.78c.7-.88,2.18-2.11,3.73-2.92,1.36-.71,1.98-1.11,2.49,.81s.56,2.41,.84,3.67c.72-1.4,1.07-2.51,1.13-4.68,.06-.8,.11-1.32,1.83-.71,0,0,4.2,1.47,6.31,3.35-.41-1.61-1.79-3.34-4.11-4.66-.73-.41-1.04-.54-1.52-.84"/><path class="ad" d="M46.01,24.61c-1.57,1.12-3.44,1.73-4.9,2.97-1.05,.85-1.95,2.23-1.84,3.59,.12,.05,.34-.24,.45-.34,1.39-1.66,3.21-2.97,5.27-3.71,.26-.05,.55,.06,.72,.26,.87,1.45,.95,3.25,1.37,4.86,.02,.02-.17-.02-.17-.01,2.61-4.94-1.38-7.66,6.31-4.04,1.09,.55,2.16,1.17,3.1,1.97l-.15,.09c-.66-2.73-3.29-4.19-5.54-5.52,1.22,.59,2.46,1.19,3.45,2.13,1.07,.98,2,2.18,2.34,3.63-2.14-1.78-4.8-3.06-7.49-3.77-1.09-.15-.61,1.42-.8,2.1-.1,1.22-.49,2.42-1.06,3.5l-.12,.22-.05-.25c-.29-1.4-.55-2.82-.99-4.18-.15-.43-.42-.91-.89-.81-2.1,.73-3.98,2.2-5.44,3.91-.84,.6-.35-1.05-.24-1.39,1.03-2.87,4.28-3.8,6.67-5.2h0Z"/></g><g><path class="r" d="M47.12,25.3c.04-1.87,.13-2.35,.71-3.83,.65-1.67,2.53-2.47,3.33-2.77s2.87-.11,1.03,1.08c-1.24,.8-2.47,1.07-2.39,5.63"/><path class="ad" d="M47.12,25.3c-.26-2.65,.87-5.56,3.54-6.49,.69-.31,1.55-.54,2.25-.08,.09,.08,.13,.23,.1,.34-.47,.95-1.81,1.13-2.33,2.02-.82,1.25-.71,2.86-.88,4.31-.13-1.49-.12-3.12,.72-4.42,.55-.84,1.55-1.08,2.19-1.75,.11-.13,.17-.28,.07-.38-.96-.55-2.17,.12-3.04,.62-2.07,1.15-2.5,3.65-2.62,5.82h0Z"/></g></g><path class="v" d="M33.32,37.24c-.96,2.1-2.1,8.55,1.67,11.95,1.22,1.11,3.48,1.64,3.48,1.64,0,0,.16-1.33-.95-3.48-1.58-3.06-1.4-6.06-.97-8.18,.33-1.63,1.21-3.31,1.9-4.45,1.11-1.82,.71-2.63,.71-2.63,0,0-3.99,1.11-5.85,5.15Z"/></g><path class="ad" d="M82.75,39.75c.35-.1,.71-.15,1.07-.15s1.19,.3,2.51,.91c.3-.35,.7-.89,1.18-1.6,.48-.71,.81-1.12,.99-1.22,.18-.1,.3-.24,.38-.42,.08-.18,.3-.48,.69-.91,.38-.43,1.05-1.22,2.02-2.36,.96-1.14,1.69-1.98,2.17-2.51,.48-.53,1.12-1.33,1.9-2.4,.79-1.07,1.28-1.6,1.48-1.6,.15-.15,.24-.34,.27-.57,.02-.23,.15-.38,.38-.46s1.31-1.43,3.24-4.07c1.93-2.64,3.55-3.96,4.87-3.96,.15,0,.34,.04,.57,.11s.75,.23,1.56,.46c.81,.23,1.36,.65,1.64,1.26,.28,.61,.42,1.02,.42,1.22l-.38,4.19c0,.56,.1,.84,.3,.84l2.28-.91c.2,0,.48,.17,.84,.49,.35,.33,.53,.95,.53,1.87,0,2.18-5.53,5.35-16.59,9.52-.61,.15-1.27,.56-1.98,1.22-.71,.66-1.18,1.03-1.41,1.1-.23,.08-1.31,1.05-3.24,2.93,1.57,.96,3.2,2.2,4.87,3.69,1.67,1.5,3.59,3.22,5.75,5.18,2.16,1.95,3.91,3.27,5.25,3.96,1.34,.69,2.68,1.81,4,3.39,1.32,1.57,1.98,2.64,1.98,3.2,0,.41-.28,.61-.84,.61-1.52,0-5.35-1.55-11.49-4.64-6.14-3.1-10.38-4.88-12.71-5.37-2.33-.48-4.26-.88-5.79-1.18l-.38,.38h-.15c-.15,.1-.28,.2-.38,.3-.51,2.84-.86,5.01-1.07,6.51-.2,1.5-.37,2.25-.49,2.25s-.19-.15-.19-.46v-.69l.23-1.07-.08,.08c0-.1-.04-.15-.11-.15s-.24,.08-.49,.23c-.25,.15-.38,.24-.38,.27,0,.03,.11,.04,.34,.04s.39-.02,.49-.08l-.53,.99c-.46,.96-.77,1.94-.95,2.93-.18,.99-.42,2.16-.72,3.5-.3,1.34-.48,2.44-.53,3.27-.05,.84-.23,1.41-.53,1.71-.3,.3-.51,.6-.61,.88-.1,.28-.18,.42-.23,.42s-.1-.14-.15-.42c-.05-.28-.15-.47-.3-.57-.15-.1-.24-.38-.27-.84-.03-.46-.29-2.14-.8-5.06-.51-2.92-.76-4.85-.76-5.79s.01-1.88,.04-2.82c.03-.94,.06-1.88,.11-2.82,.05-.94,.2-3.78,.46-8.53,.25-4.74,.77-9.32,1.56-13.74,.79-4.42,1.37-7.97,1.75-10.66,.38-2.69,.62-4.15,.72-4.38,.1-.23,.33-1.55,.69-3.96,.35-2.41,.76-3.87,1.22-4.38,.91-1.01,1.55-2.51,1.9-4.49,.1-.46,.41-1.04,.91-1.75,.51-.71,.86-1.07,1.07-1.07s.42,.13,.65,.38c.23,.25,.47,.38,.72,.38,.91,0,1.4,.51,1.45,1.52v.15l-.38,2.51v.46c0,1.67,.48,2.54,1.45,2.59,.46,0,.81-.32,1.07-.95,.25-.63,.46-.95,.61-.95s.23,.2,.23,.61-.03,1.04-.08,1.9c-.05,.86-.47,3.01-1.26,6.43-.79,3.43-1.55,7.13-2.28,11.11-.74,3.98-1.24,6.65-1.52,7.99-.28,1.35-.52,2.68-.72,4Zm29.84-13.09c0-.15-.18-.23-.53-.23s-.53,.18-.53,.53c0,.15,.18,.23,.53,.23s.53-.18,.53-.53Z"/><path class="ad" d="M116.7,9.91l-.23-1.83c0-1.12,.51-2.13,1.52-3.04,.25-.2,.8-.3,1.64-.3s2.37,.56,4.61,1.67c3.3,1.62,7.71,2.41,13.25,2.36h1.22c.86-.96,1.4-2.04,1.6-3.24,.2-1.19,.54-2.14,1.03-2.85,.48-.71,.82-1.07,1.03-1.07s.42,.13,.65,.38c.23,.25,.5,.38,.8,.38,.96,0,1.42,.56,1.37,1.67l-.38,2.51c-.05,.81,.02,1.47,.23,1.98,.81-.05,1.62-.1,2.44-.15,.2-.46,.35-.69,.46-.69s.15,.2,.15,.61c10.81-.86,16.8-1.78,17.97-2.74,.71-.61,1.34-.91,1.9-.91,1.42,0,2.1,.43,2.05,1.29v.3c0,1.02,.3,1.52,.91,1.52l1.07-.23c.15,0,.25,.05,.3,.15-.15,.2-.34,.32-.57,.34-.23,.03-.5,.17-.8,.42-.76,.86-2.13,1.35-4.11,1.45l-1.75-.3c-.15,0-.33,.03-.53,.08-.2,.05-.96,.18-2.28,.38-1.32,.2-2.17,.36-2.55,.46-.38,.1-1.02,.24-1.9,.42-.89,.18-2.72,.56-5.48,1.14-2.77,.58-4.33,.9-4.68,.95-.2,1.02-.57,2.73-1.1,5.14-.53,2.41-1.18,5.61-1.94,9.59-.76,3.98-1.29,6.74-1.6,8.26-.3,1.52-.6,3.13-.88,4.83-.28,1.7-.79,4.64-1.52,8.83-.74,4.19-1.22,7.09-1.45,8.72-.23,1.62-.43,2.47-.61,2.55-.18,.08-.24-.06-.19-.42v-.69l.23-1.07-.76,1.37c-.46,.96-.77,1.94-.95,2.93-.18,.99-.41,2.16-.69,3.5-.28,1.34-.44,2.44-.49,3.27-.05,.84-.23,1.41-.53,1.71-.3,.3-.52,.6-.65,.88-.13,.28-.2,.42-.23,.42-.03,0-.06-.14-.11-.42-.05-.28-.17-.47-.34-.57-.18-.1-.27-.38-.27-.84s-.27-2.14-.8-5.06c-.53-2.92-.8-4.85-.8-5.79s.02-1.88,.08-2.82c.05-.94,.09-1.88,.11-2.82,.03-.94,.16-3.78,.42-8.53,.25-4.74,.79-9.32,1.6-13.74,.81-4.42,1.4-7.97,1.75-10.66,.35-2.69,.58-4.14,.69-4.34,.1-.2,.25-1.04,.46-2.51-1.37,.2-3.71,.51-7,.91-3.3,.41-5.68,.75-7.16,1.03-1.47,.28-2.88,.42-4.23,.42s-2.41-.38-3.2-1.14c-.79-.76-1.15-1.24-1.1-1.45,.05-.2,.18-.3,.38-.3,.25-.15,.65-.72,1.18-1.71,.53-.99,.8-1.86,.8-2.63Z"/><g><path class="n" d="M188.6,43.67c.57,13.33-7.66,21.14-19.57,18.98-8.3-1.5-18.37-7.25-20.48-18.11-1.61-8.31,2.77-17.45,20.22-17.43,17.59,.02,19.48,8.06,19.84,16.57Z"/><g><g><path class="u" d="M171.68,25.14s2.99,1.07,5.4,1.14c1.04,.03,2.63-.15,3.46-.3,.73-.14,1.42-.41,1.42-.41,0,0-.15,.92-2.25,1.74-1.46,.57-3.08,.75-3.99,.75l-4.52-.45"/><path class="ad" d="M171.71,25.06c3.21,1.26,6.92,1.6,10.21,.43,.2-.06,.21-.16,.12,.1-.22,.63-.74,.98-1.24,1.29-1.55,.87-3.34,1.23-5.1,1.27l-4.52-.45,.02-.18,4.52,.45c2.03-.13,5.01-.47,6.15-2.41l.12,.1c-.83,.32-1.71,.48-2.58,.57-2.64,.43-5.25-.25-7.76-1l.06-.17h0Z"/></g><g><path class="t" d="M169.15,24.87l-1.07,.07c-1.13,.04-2.01,.08-2.69,.13-1.56,.11-3.08,.57-4.42,1.4-.33,.2-.65,.43-.96,.67-1.77,1.4-1.65,2.32-1.65,2.32,0,0,.58-.46,1.24-.81,.75-.39,2.21-1.06,3.22-1.3,2.01-.48,3.22-.35,3.22-.35l3.79,.12"/><path class="ad" d="M169.15,24.91c-2.99,.15-6.51,.1-8.92,2.16-.76,.58-1.69,1.38-1.78,2.37l-.15-.06c2.21-1.6,5.02-2.59,7.74-2.47l3.79,.12v.18c-1.43,0-4.45-.28-5.82,0-2.05,.34-4.07,1.16-5.72,2.42l-.02-.16c.01-.6,.36-1.05,.69-1.46,1.78-1.95,4.43-3,7.05-3.02l3.13-.16v.08h0Z"/></g><g><path class="aa" d="M167.9,25.96c-.98,.66-3.05,1.56-4.18,2.34-1,.69-2.08,1.65-2.46,2.98s-.27,1.81,.55,.78c.7-.88,2.18-2.11,3.73-2.92,1.36-.71,1.98-1.11,2.49,.81s.56,2.41,.84,3.67c.72-1.4,1.07-2.51,1.13-4.68,.06-.8,.11-1.32,1.83-.71,0,0,4.2,1.47,6.31,3.35-.41-1.61-1.79-3.34-4.11-4.66-.73-.41-1.04-.54-1.52-.84"/><path class="ad" d="M167.9,25.96c-1.57,1.12-3.44,1.73-4.9,2.97-1.05,.85-1.95,2.23-1.84,3.59,.12,.05,.34-.24,.45-.34,1.39-1.66,3.21-2.97,5.27-3.71,.26-.05,.55,.06,.72,.26,.87,1.45,.95,3.25,1.37,4.86,.02,.02-.17-.02-.17-.01,2.61-4.94-1.38-7.66,6.31-4.04,1.09,.55,2.16,1.17,3.1,1.97l-.15,.09c-.66-2.73-3.29-4.19-5.54-5.52,1.22,.59,2.46,1.19,3.45,2.13,1.07,.98,2,2.18,2.34,3.63-2.14-1.78-4.8-3.06-7.49-3.77-1.09-.15-.61,1.42-.8,2.1-.1,1.22-.49,2.42-1.06,3.5l-.12,.22-.05-.25c-.29-1.4-.55-2.82-.99-4.18-.15-.43-.42-.91-.89-.81-2.1,.73-3.98,2.2-5.44,3.91-.84,.6-.35-1.05-.24-1.39,1.03-2.87,4.28-3.8,6.67-5.2h0Z"/></g><g><path class="ab" d="M169.02,26.64c.04-1.87,.13-2.35,.71-3.83,.65-1.67,2.53-2.47,3.33-2.77s2.87-.11,1.03,1.08c-1.24,.8-2.47,1.07-2.39,5.63"/><path class="ad" d="M169.02,26.64c-.26-2.65,.87-5.56,3.54-6.49,.69-.31,1.55-.54,2.25-.08,.09,.08,.13,.23,.1,.34-.47,.95-1.81,1.13-2.33,2.02-.82,1.25-.71,2.86-.88,4.31-.13-1.49-.12-3.12,.72-4.42,.55-.84,1.55-1.08,2.19-1.75,.11-.13,.17-.28,.07-.38-.96-.55-2.17,.12-3.04,.62-2.07,1.15-2.5,3.65-2.62,5.82h0Z"/></g></g><path class="v" d="M155.21,38.59c-.96,2.1-2.1,8.55,1.67,11.95,1.22,1.11,3.48,1.64,3.48,1.64,0,0,.16-1.33-.95-3.48-1.58-3.06-1.4-6.06-.97-8.18,.33-1.63,1.21-3.31,1.9-4.45,1.11-1.82,.71-2.63,.71-2.63,0,0-3.99,1.11-5.85,5.15Z"/></g><path class="ad" d="M200.2,58.24c-.46,0-.93,.38-1.41,1.14-.48,.76-.94,1.28-1.37,1.56-.43,.28-.7,.49-.8,.65-.1,.15-.17,.23-.19,.23-.03,0-.14-.44-.34-1.33-.2-.89-.3-2.18-.3-3.88s.3-4.67,.91-8.91c.61-4.24,.91-7.62,.91-10.16s-.18-3.88-.53-4.03c-.56-.15-1.27-.38-2.13-.69l.84-1.29c.56-.81,.85-1.41,.88-1.79,.03-.38,.09-.65,.19-.8,.41-.2,.98-.8,1.71-1.79,.74-.99,1.13-1.59,1.18-1.79,.05-.2,.41-.63,1.07-1.29,.66-.66,1.09-.99,1.29-.99s.48,.13,.84,.38c.35,.25,.72,.41,1.1,.46,.38,.05,.77,.23,1.18,.53,.41,.46,.62,1.73,.65,3.81,.03,2.08,.25,3.26,.69,3.54,.43,.28,.81,.42,1.14,.42s.47-.23,.42-.69l-.08-.91c-.05-.41,.05-.58,.3-.53,.61,.2,.91,1.12,.91,2.74s-.48,4.24-1.45,7.84c.41-.46,.91-1.1,1.52-1.94,.61-.84,.98-1.31,1.1-1.41,.13-.1,.25-.24,.38-.42,.13-.18,.8-.99,2.02-2.44,1.22-1.45,2.04-2.4,2.47-2.85,.43-.46,.88-.99,1.33-1.6,.46-.61,.91-1.15,1.37-1.64,.46-.48,.7-.81,.72-.99,.03-.18,.13-.3,.3-.38,.18-.08,1.17-1.32,2.97-3.73,1.8-2.41,3.29-3.62,4.45-3.62,.1,0,.27,.03,.5,.08,.23,.05,.72,.17,1.48,.34,.76,.18,1.28,.57,1.56,1.18,.28,.61,.42,.99,.42,1.14l-.46,3.81c-.1,.51,.02,.76,.38,.76l2.06-.84c.2,0,.47,.15,.8,.46,.33,.3,.48,.9,.46,1.79-.03,.89-.32,2.01-.88,3.35-.56,1.35-.85,2.17-.88,2.47-.03,.3-.28,.98-.76,2.02-.48,1.04-1.13,3.08-1.94,6.13,.96-1.22,1.66-2.07,2.09-2.55,.43-.48,.98-1.18,1.64-2.09,.66-.91,1.08-1.42,1.26-1.52,.18-.1,.3-.24,.38-.42,.08-.18,.29-.5,.65-.95,.35-.46,1.03-1.26,2.02-2.4,.99-1.14,1.72-1.97,2.21-2.47,.48-.51,1.12-1.29,1.9-2.36,.79-1.07,1.28-1.6,1.48-1.6,.15-.15,.25-.35,.3-.61,.05-.25,.18-.42,.38-.49,.2-.08,1.26-1.42,3.16-4.03,1.9-2.61,3.54-3.92,4.91-3.92,.15,0,.34,.04,.57,.11s.74,.22,1.52,.42c.79,.2,1.33,.62,1.64,1.26,.3,.64,.46,1.05,.46,1.26l-.38,4.11c0,.56,.1,.84,.3,.84l2.28-.91c.2,0,.48,.17,.84,.5,.35,.33,.53,.96,.53,1.9s-.3,2.16-.91,3.65c-.61,1.5-.94,2.4-.99,2.7-.05,.3-.37,1.13-.95,2.47-.58,1.35-1.55,4.64-2.89,9.9-1.34,5.25-2.02,10.29-2.02,15.11-.05,.66-.27,1.14-.65,1.45s-.57,.88-.57,1.71-.3,1.92-.91,3.23c-.15,.25-.36,.38-.61,.38s-.84-.41-1.75-1.22c-2.99-2.89-4.52-7.84-4.57-14.84v-.84c0-3.09,.91-7.56,2.74-13.4,.3-1.01,.46-1.69,.46-2.02s-.05-.49-.15-.49c-.15,0-.48,.24-.99,.72-.51,.48-1.08,.83-1.71,1.03-.63,.2-1.15,.48-1.56,.84-.41,.36-.77,.66-1.1,.91-.33,.25-.66,.46-.99,.61-.33,.15-4.17,3.91-11.53,11.27-.36,2.44-.76,5.76-1.22,9.97-.1,.61-.32,1.04-.65,1.29-.33,.25-.49,.81-.49,1.67s-.15,1.6-.46,2.21-.57,.93-.8,.95c-.23,.02-.8-.32-1.71-1.03-2.79-2.69-4.19-7.54-4.19-14.54,0-2.54,.84-6.62,2.51-12.26,.35-1.12,.53-1.76,.53-1.94s-.06-.28-.19-.3c-.13-.02-.47,.19-1.03,.65-.56,.46-1.1,.75-1.64,.88-.53,.13-1.07,.46-1.6,.99-.53,.53-1.05,.93-1.56,1.18-.51,.25-3.81,3.43-9.9,9.52-.3,.81-.47,1.45-.5,1.9-.03,.46-.57,1.61-1.64,3.46-1.07,1.85-1.76,2.92-2.09,3.2-.33,.28-.5,.57-.5,.88l.15,.08-.53-.08Zm32.43-31.06c0-.1-.17-.16-.5-.19-.33-.02-.49,.11-.49,.42,0,.1,.16,.17,.49,.19,.33,.03,.5-.11,.5-.42Zm25.65-2.13c0-.15-.18-.22-.53-.19-.36,.03-.53,.22-.53,.57,0,.15,.18,.22,.53,.19,.35-.02,.53-.22,.53-.57Z"/><path class="ad" d="M303.35,33.58l.61,.53c0,.2-.3,.34-.91,.42-.61,.08-1.36,.33-2.25,.76-.89,.43-1.71,.71-2.47,.84-.76,.13-1.13,.29-1.1,.5,.02,.2,.06,.44,.11,.72,.05,.28,.08,.66,.08,1.14s.11,.72,.34,.72,.74-.34,1.52-1.03,1.23-1.03,1.33-1.03,.15,.05,.15,.15-.17,.47-.5,1.1c-.33,.64-.5,2.01-.5,4.11s.5,4.2,1.48,6.28c.99,2.08,1.48,3.43,1.48,4.03s-.17,1.13-.49,1.56c-.33,.43-1.03,1.19-2.09,2.28-1.07,1.09-2.74,1.64-5.02,1.64-.76,0-1.23-.16-1.41-.49-.18-.33-.52-.63-1.03-.91-.51-.28-.8-.88-.88-1.79-.08-.91-.17-2.79-.27-5.63-.1-2.84-.51-4.29-1.22-4.34-.25,.15-1.8,1.79-4.64,4.91-2.84,3.12-4.96,5.13-6.36,6.01-1.4,.89-2.26,1.55-2.59,1.98-.33,.43-1.56,.95-3.69,1.56-2.13,.61-3.9,.91-5.29,.91s-2.56-.13-3.5-.38c-.94-.25-1.46-.47-1.56-.65-.1-.18-.25-.3-.46-.38-.2-.08-.62-.43-1.26-1.07-.64-.63-.95-2.03-.95-4.19s.56-4.68,1.67-7.57c1.12-2.89,1.78-4.67,1.98-5.33,.2-.66,.41-1.13,.61-1.41,.2-.28,.38-.7,.53-1.26,.15-.56,.33-.89,.53-.99s.33-.25,.38-.46c0-.86,1.24-2.35,3.73-4.45,2.49-2.1,4.21-3.43,5.18-3.96,.96-.53,1.99-1.09,3.08-1.67,1.09-.58,3.01-1.4,5.75-2.44,2.74-1.04,5.42-1.56,8.03-1.56s4.92,.49,6.93,1.48c2,.99,3.11,1.92,3.31,2.78,.05,.41,.13,.91,.23,1.52v1.83l1.37,.38c.96,.36,1.5,.74,1.6,1.14-.05,.36-.15,.56-.3,.61-.46,0-.84,.3-1.14,.91-.1,.05-.15,.1-.15,.15Zm-16.1,7.42c.38-.43,.74-.95,1.07-1.56,.33-.61,.66-1.18,.99-1.71,.33-.53,.5-1,.5-1.41s-.08-.61-.23-.61c-.25,0-1.55,.32-3.88,.95-2.33,.63-3.82,1.22-4.45,1.75-.63,.53-1.05,.84-1.26,.91-.2,.08-.75,.51-1.64,1.29-.89,.79-1.6,1.21-2.13,1.26-.53,.05-.77,.13-.72,.23v.3l-.08,.23c-.05-.05-.13-.08-.23-.08-.46,0-1.46,1.26-3.01,3.77-1.55,2.51-2.35,4.78-2.4,6.81,.41,.56,1.08,.83,2.02,.8,.94-.02,1.87-.29,2.78-.8,.91-.51,1.39-.82,1.45-.95,.05-.13,.15-.19,.3-.19,.76-.15,2.63-1.81,5.6-4.99,2.97-3.17,4.5-4.86,4.61-5.06,.1-.2,.34-.52,.72-.95Zm12.67,6.2c-.05,.05-.08,.88-.08,2.47s.43,2.75,1.29,3.46c.2,.05,.41,.09,.61,.11,.2,.03,.3-.19,.3-.65s-.32-1.42-.95-2.89c-.63-1.47-1.03-2.31-1.18-2.51Z"/><path class="ad" d="M320.94,69.28h-.61c-3.04-.2-4.82-.66-5.33-1.37-1.83-2.79-2.72-4.34-2.66-4.64,0-.96,.16-4.5,.49-10.62,.33-6.11,.95-11.94,1.87-17.47-1.27,.41-1.98,.61-2.13,.61h-1.29c-.41,0-.74-.18-.99-.53-.25-.35-.55-.54-.88-.57-.33-.02-.5-.13-.5-.3s.2-.48,.61-.91c.41-.43,.57-.74,.49-.91-.08-.18,.06-.44,.42-.8s.53-.84,.53-1.45l-.3-1.22c0-.41,.33-.91,.99-1.52,.66-.61,1.17-1,1.52-1.18,.35-.18,1.4-.29,3.12-.34,.25-1.47,.46-2.85,.61-4.15s.28-2.08,.38-2.36c.1-.28,.3-1.62,.61-4.03,.3-2.41,.69-3.84,1.14-4.3,.96-.86,1.55-1.94,1.75-3.24,.2-1.29,.56-2.28,1.07-2.97,.51-.69,.86-1.03,1.07-1.03s.35,.15,.46,.46c.1,.3,.33,.41,.69,.3,.35-.1,.58-.15,.69-.15,.61,0,.94,.43,.99,1.29v.46l-.3,2.44c-.05,.3-.08,.61-.08,.91,0,1.47,.48,2.18,1.45,2.13,.46,0,.84-.29,1.14-.88,.3-.58,.53-.9,.69-.95,.15,0,.23,.52,.23,1.56s-.46,3.6-1.37,7.69c-.91,4.09-1.55,7.04-1.9,8.87,1.98,.61,3.58,.93,4.8,.95,1.22,.03,2.6,.32,4.15,.88,1.55,.56,2.32,1.04,2.32,1.45,0,.76-2.31,1.22-6.93,1.37-2.13,.05-3.93,.13-5.4,.23-.3,1.62-.53,3.15-.69,4.57-.15,1.42-.58,3.44-1.29,6.05-.71,2.61-1.29,7.45-1.75,14.5-.05,.41-.05,.79,0,1.14,0,2.44,.61,3.7,1.83,3.81h.15c2.28,0,4.61-1.12,6.96-3.35,2.36-2.23,3.69-3.35,4-3.35s.35,.27,.15,.8c-.2,.53-.3,.93-.3,1.18s-.03,.46-.08,.61c-.05,.15-.34,.67-.88,1.56-.53,.89-.9,1.38-1.1,1.48-.2,.1-.74,.71-1.6,1.83-3.15,3.65-6.14,5.48-8.98,5.48Z"/><path class="ad" d="M399.27,33.58l.61,.53c0,.2-.3,.34-.91,.42-.61,.08-1.36,.33-2.25,.76-.89,.43-1.71,.71-2.47,.84-.76,.13-1.13,.29-1.1,.5,.02,.2,.06,.44,.11,.72,.05,.28,.08,.66,.08,1.14s.11,.72,.34,.72,.74-.34,1.52-1.03,1.23-1.03,1.33-1.03,.15,.05,.15,.15-.17,.47-.5,1.1c-.33,.64-.5,2.01-.5,4.11s.5,4.2,1.48,6.28c.99,2.08,1.48,3.43,1.48,4.03s-.17,1.13-.49,1.56c-.33,.43-1.03,1.19-2.09,2.28-1.07,1.09-2.74,1.64-5.02,1.64-.76,0-1.23-.16-1.41-.49-.18-.33-.52-.63-1.03-.91-.51-.28-.8-.88-.88-1.79-.08-.91-.17-2.79-.27-5.63-.1-2.84-.51-4.29-1.22-4.34-.25,.15-1.8,1.79-4.64,4.91-2.84,3.12-4.96,5.13-6.36,6.01-1.4,.89-2.26,1.55-2.59,1.98-.33,.43-1.56,.95-3.69,1.56-2.13,.61-3.9,.91-5.29,.91s-2.56-.13-3.5-.38c-.94-.25-1.46-.47-1.56-.65-.1-.18-.25-.3-.46-.38-.2-.08-.62-.43-1.26-1.07-.64-.63-.95-2.03-.95-4.19s.56-4.68,1.67-7.57c1.12-2.89,1.78-4.67,1.98-5.33,.2-.66,.41-1.13,.61-1.41,.2-.28,.38-.7,.53-1.26,.15-.56,.33-.89,.53-.99s.33-.25,.38-.46c0-.86,1.24-2.35,3.73-4.45,2.49-2.1,4.21-3.43,5.18-3.96,.96-.53,1.99-1.09,3.08-1.67,1.09-.58,3.01-1.4,5.75-2.44,2.74-1.04,5.42-1.56,8.03-1.56s4.92,.49,6.93,1.48c2,.99,3.11,1.92,3.31,2.78,.05,.41,.13,.91,.23,1.52v1.83l1.37,.38c.96,.36,1.5,.74,1.6,1.14-.05,.36-.15,.56-.3,.61-.46,0-.84,.3-1.14,.91-.1,.05-.15,.1-.15,.15Zm-16.1,7.42c.38-.43,.74-.95,1.07-1.56,.33-.61,.66-1.18,.99-1.71,.33-.53,.5-1,.5-1.41s-.08-.61-.23-.61c-.25,0-1.55,.32-3.88,.95-2.33,.63-3.82,1.22-4.45,1.75-.63,.53-1.05,.84-1.26,.91-.2,.08-.75,.51-1.64,1.29-.89,.79-1.6,1.21-2.13,1.26-.53,.05-.77,.13-.72,.23v.3l-.08,.23c-.05-.05-.13-.08-.23-.08-.46,0-1.46,1.26-3.01,3.77-1.55,2.51-2.35,4.78-2.4,6.81,.41,.56,1.08,.83,2.02,.8,.94-.02,1.87-.29,2.78-.8,.91-.51,1.39-.82,1.45-.95,.05-.13,.15-.19,.3-.19,.76-.15,2.63-1.81,5.6-4.99,2.97-3.17,4.5-4.86,4.61-5.06,.1-.2,.34-.52,.72-.95Zm12.67,6.2c-.05,.05-.08,.88-.08,2.47s.43,2.75,1.29,3.46c.2,.05,.41,.09,.61,.11,.2,.03,.3-.19,.3-.65s-.32-1.42-.95-2.89c-.63-1.47-1.03-2.31-1.18-2.51Z"/><g><polygon class="l" points="352.78 30.59 344.46 29.32 350.08 20.39 352.78 30.59"/><g><path class="y" d="M346,28.57h0c.77,.12,1.32,.66,1.24,1.2l-4.66,30.65-2.77-.42,4.66-30.65c.08-.55,.77-.9,1.54-.78Z"/><path class="q" d="M348.77,28.99h0c.77,.12,1.32,.66,1.24,1.2l-4.66,30.65-2.77-.42,4.66-30.65c.08-.55,.77-.9,1.54-.78Z"/><path class="ac" d="M351.54,29.41h0c.77,.12,1.32,.66,1.24,1.2l-4.66,30.65-2.77-.42,4.66-30.65c.08-.55,.77-.9,1.54-.78Z"/></g><rect class="a`" x="339.63" y="60.62" width="8.42" height="1.61" transform="translate(13.14 -51) rotate(8.65)"/><path class="s" d="M339.2,62.19h8.42v1.5c0,1.41-1.14,2.55-2.55,2.55h-3.32c-1.41,0-2.55-1.14-2.55-2.55v-1.5h0Z" transform="translate(13.56 -50.9) rotate(8.65)"/><polygon class="ad" points="350.08 20.39 348.93 22.22 350.63 22.48 350.08 20.39"/></g></g><polyline class="m" points="347.56 3.9 348.04 3.07 347.35 11.45 352.86 1.91 351.61 9.84 356.67 1.08 353.21 13.45 359.59 2.4"/></svg>