<svg xmlns="http://www.w3.org/2000/svg" xmlns:xlink="http://www.w3.org/1999/xlink" xmlns:fi="http://pattern.flaticon.com/" x="0" y="0" width="1980" height="990" viewBox="0 0 13860 6930"><rect x="0px" y="0px" width="100%" height="100%" opacity="1" fill="#a8c85e"/><defs><g transform="matrix(0.0948629230260849 0 0 0.0948629230260849 29.71507650459131 247.20483939477583)" id="L1_3"><path d="m164.960938 300.003906h.023437c.019531 0 .039063-.003906.058594-.003906h271.957031c6.695312 0 12.582031-4.441406 14.421875-10.878906l60-210c1.292969-4.527344.386719-9.394532-2.445313-13.152344-2.835937-3.757812-7.269531-5.96875-11.976562-5.96875h-366.632812l-10.722657-48.253906c-1.527343-6.863282-7.613281-11.746094-14.644531-11.746094h-90c-8.285156 0-15 6.714844-15 15s6.714844 15 15 15h77.96875c1.898438 8.550781 51.3125 230.917969 54.15625 243.710938-15.941406 6.929687-27.125 22.824218-27.125 41.289062 0 24.8125 20.1875 45 45 45h272c8.285156 0 15-6.714844 15-15s-6.714844-15-15-15h-272c-8.269531 0-15-6.730469-15-15 0-8.257812 6.707031-14.976562 14.960938-14.996094zm312.152343-210.003906-51.429687 180h-248.652344l-40-180zm0 0"/><path d="m150 405c0 24.8125 20.1875 45 45 45s45-20.1875 45-45-20.1875-45-45-45-45 20.1875-45 45zm45-15c8.269531 0 15 6.730469 15 15s-6.730469 15-15 15-15-6.730469-15-15 6.730469-15 15-15zm0 0"/><path d="m362 405c0 24.8125 20.1875 45 45 45s45-20.1875 45-45-20.1875-45-45-45-45 20.1875-45 45zm45-15c8.269531 0 15 6.730469 15 15s-6.730469 15-15 15-15-6.730469-15-15 6.730469-15 15-15zm0 0"/></g><g transform="matrix(0.24002618290552516 0.17848100413109177 -0.17848100413109177 0.24002618290552516 180.92890511648943 212.29135493514593)" id="L1_4"><path d="m275.535 120.617c-.289-1.445-1.352-2.615-2.762-3.043-1.42-.428-2.947-.045-3.988 1-16.891 16.885-35.916 12.729-48.898 6.271-10.293-5.121-20.662-8.232-30.816-9.248l-23.283-2.328c-10.748-1.074-21.324-4.58-30.584-10.135l-1.279-.768c-8.291-4.975-15.346-11.488-20.969-19.359-6.076-8.506-15.104-14.113-25.422-15.789-10.324-1.676-20.66.789-29.115 6.939l-26.802 19.495c-7.059 5.131-9.35 14.523-5.447 22.33l1.775 3.551c3.297 6.594 10.932 9.623 17.729 7.365l.057.166c1.486 4.459 4.795 8.119 9.082 10.043 4.285 1.928 9.219 1.969 13.543.117l24.225-10.381 4.336 14.451h-9.604c-8.592 0-15.58 6.988-15.58 15.58v6.42c0 5.514 4.486 10 10 10s10-4.486 10-10c0-1.104.896-2 2-2h13.273c5.745 7.213 13.203 12.814 21.585 16.324-1.093 15.975 7.259 24.872 10.908 27.956.193.164.234.379.234.531 0 .322-.215.611-.525.701l-10.625 3.125c-5.211 1.533-8.85 6.398-8.85 11.83v3.533c0 2.209 1.791 4 4 4h8c0 2.209 1.791 4 4 4h38.711c7.328 0 13.289-5.961 13.289-13.289v-8.535c4.322-3.917 16.646-16.399 21.719-34.852 6.989-1.625 13.8-3.895 20.25-6.792 50.503-22.692 46.048-48.137 45.833-49.209zm-147.777 100.677c.189-1.715 1.402-3.193 3.082-3.688l10.623-3.125c3.691-1.084 6.27-4.529 6.27-8.377 0-2.572-1.119-4.992-3.07-6.641-2.56-2.165-8.156-8.276-8.098-19.28 1.602.396 3.22.72 4.86.969 1.03 9.62 4.924 19.992 14.107 29.797.191.203.305.451.305.666 0 .455-.309.846-.746.953l-12.648 3.086c-3.43.838-6.263 2.906-8.165 5.639h-6.52zm98.666-58.765c-4.877 2.189-9.981 3.992-15.215 5.405.696-5.525.689-11.462-.363-17.776-.363-2.176-2.408-3.658-4.604-3.287-2.178.363-3.65 2.424-3.287 4.604 5.416 32.496-21.473 54.846-21.746 55.068-.932.76-1.477 1.902-1.477 3.104v10.359c0 2.916-2.373 5.289-5.289 5.289h-33.201c.795-.898 1.861-1.564 3.098-1.865l12.646-3.088c4.033-.984 6.85-4.572 6.85-8.725 0-2.262-.879-4.443-2.469-6.139-8.529-9.106-11.758-18.718-12.296-27.458.001-.011.008-.02.009-.031.004-.046-.017-.087-.015-.133-.955-16.512 7.663-29.868 8.22-30.711 1.217-1.84.717-4.322-1.121-5.543-1.838-1.217-4.316-.723-5.539 1.111-.146.218-8.642 13.268-9.44 30.337-8.717-1.605-16.789-5.728-23.259-11.757h.729c2.209 0 4-1.791 4-4s-1.791-4-4-4h-24.923c-5.514 0-10 4.486-10 10 0 1.104-.896 2-2 2s-2-.896-2-2v-6.42c0-4.18 3.4-7.58 7.58-7.58h19.576c2.209 0 4-1.791 4-4s-1.791-4-4-4h-1.601c-.057-.182-.125-.356-.18-.539l-6.152-20.504c-.328-1.09-1.105-1.99-2.139-2.473-1.033-.486-2.221-.504-3.27-.053l-28.344 12.146c-2.299.984-4.826.963-7.113-.062-2.285-1.025-3.979-2.898-4.77-5.275l-.369-1.107 32.195-16.098c1.977-.988 2.777-3.391 1.789-5.367-.988-1.975-3.385-2.777-5.367-1.789l-35.299 17.65c-.001.001-.002.002-.003.003l-2.221 1.109c-1.594.797-3.396.924-5.09.363-1.689-.564-3.057-1.75-3.854-3.344l-1.775-3.551c-2.146-4.293-.887-9.459 2.996-12.283l26.803-19.494c6.717-4.885 14.936-6.84 23.125-5.512 8.197 1.332 15.369 5.785 20.195 12.543 6.264 8.77 14.125 16.025 23.361 21.568l1.279.768c10.266 6.158 21.99 10.045 33.904 11.236l23.283 2.328c9.189.918 18.625 3.762 28.051 8.451 10.838 5.387 30.379 11.559 49.23-.553-3.683 7.817-13.464 19.542-39.128 31.075z"/><path d="m65.708 93.99c-2.142 0-3.879 1.737-3.879 3.879s1.737 3.879 3.879 3.879 3.879-1.737 3.879-3.879-1.737-3.879-3.879-3.879z"/></g><path d="m256 0c-141.484375 0-256 114.496094-256 256 0 44.902344 11.710938 88.757812 33.949219 127.4375l-32.984375 102.429688c-2.300782 7.140624-.410156 14.96875 4.894531 20.273437 5.253906 5.253906 13.0625 7.214844 20.273437 4.894531l102.429688-32.984375c38.679688 22.238281 82.535156 33.949219 127.4375 33.949219 141.484375 0 256-114.496094 256-256 0-141.484375-114.496094-256-256-256zm0 472c-40.558594 0-80.09375-11.316406-114.332031-32.726562-4.925781-3.078126-11.042969-3.910157-16.734375-2.078126l-73.941406 23.8125 23.8125-73.941406c1.804687-5.609375 1.042968-11.734375-2.082032-16.734375-21.40625-34.238281-32.722656-73.773437-32.722656-114.332031 0-119.101562 96.898438-216 216-216s216 96.898438 216 216-96.898438 216-216 216zm25-216c0 13.804688-11.191406 25-25 25s-25-11.195312-25-25c0-13.808594 11.191406-25 25-25s25 11.191406 25 25zm100 0c0 13.804688-11.191406 25-25 25s-25-11.195312-25-25c0-13.808594 11.191406-25 25-25s25 11.191406 25 25zm-200 0c0 13.804688-11.191406 25-25 25-13.804688 0-25-11.195312-25-25 0-13.808594 11.195312-25 25-25 13.808594 0 25 11.191406 25 25zm0 0" transform="matrix(0.052480583608446436 0.07457767043828754 -0.07457767043828754 0.052480583608446436 262.65684278434753 234.4730755199443)" id="L1_6"/><path d="M404.72,82.944c-0.027,0-0.054,0-0.08,0h0h-27.12v-9.28c0.146-3.673-2.23-6.974-5.76-8    c-18.828-4.934-38.216-7.408-57.68-7.36c-32,0-75.6,7.2-107.84,40c-32-33.12-75.92-40-107.84-40    c-19.464-0.048-38.852,2.426-57.68,7.36c-3.53,1.026-5.906,4.327-5.76,8v9.2H8c-4.418,0-8,3.582-8,8v255.52c0,4.418,3.582,8,8,8    c1.374-0.004,2.724-0.362,3.92-1.04c0.8-0.4,80.8-44.16,192.48-16h1.2h0.72c0.638,0.077,1.282,0.077,1.92,0    c112-28.4,192,15.28,192.48,16c2.475,1.429,5.525,1.429,8,0c2.46-1.42,3.983-4.039,4-6.88V90.944    C412.72,86.526,409.139,82.944,404.72,82.944z M16,333.664V98.944h19.12v200.64c-0.05,4.418,3.491,8.04,7.909,8.09    c0.432,0.005,0.864-0.025,1.291-0.09c16.55-2.527,33.259-3.864,50-4c23.19-0.402,46.283,3.086,68.32,10.32    C112.875,307.886,62.397,314.688,16,333.664z M94.32,287.664c-14.551,0.033-29.085,0.968-43.52,2.8V79.984    c15.576-3.47,31.482-5.241,47.44-5.28c29.92,0,71.2,6.88,99.84,39.2l0.24,199.28C181.68,302.304,149.2,287.664,94.32,287.664z     M214.32,113.904c28.64-32,69.92-39.2,99.84-39.2c15.957,0.047,31.863,1.817,47.44,5.28v210.48    c-14.354-1.849-28.808-2.811-43.28-2.88c-54.56,0-87.12,14.64-104,25.52V113.904z M396.64,333.664    c-46.496-19.028-97.09-25.831-146.96-19.76c22.141-7.26,45.344-10.749,68.64-10.32c16.846,0.094,33.663,1.404,50.32,3.92    c4.368,0.663,8.447-2.341,9.11-6.709c0.065-0.427,0.095-0.859,0.09-1.291V98.944h19.12L396.64,333.664z" transform="matrix(0.11846371740102768 0 0 0.11846371740102768 292.5441382974386 243.55798838488)" id="L1_8"/><path d="M26.511,12.004L6.233,0.463c-2.151-1.228-4.344,0.115-4.344,2.53v24.093   c0,2.046,1.332,2.979,2.57,2.979c0.583,0,1.177-0.184,1.767-0.543l20.369-12.468c1.024-0.629,1.599-1.56,1.581-2.555   C28.159,13.503,27.553,12.593,26.511,12.004z M25.23,14.827L4.862,27.292c-0.137,0.084-0.245,0.126-0.319,0.147   c-0.02-0.074-0.04-0.188-0.04-0.353V2.994c0-0.248,0.045-0.373,0.045-0.404c0.08,0.005,0.22,0.046,0.396,0.146l20.275,11.541   c0.25,0.143,0.324,0.267,0.348,0.24C25.554,14.551,25.469,14.678,25.23,14.827z" transform="matrix(1.3071316480636597 0 0 1.3071316480636597 -1.6432601172788281 248.32816588878632)" fill="#010002" id="L1_9"/><g transform="matrix(0.08724559843540192 0 0 0.08724559843540192 72.6502176982192 250.64282964915037)" id="L1_10"><path d="M244.709,389.496c18.736,0,34.332-14.355,35.91-33.026l24.359-290.927c1.418-16.873-4.303-33.553-15.756-46.011   C277.783,7.09,261.629,0,244.709,0s-33.074,7.09-44.514,19.532C188.74,31.99,183.022,48.67,184.44,65.543l24.359,290.927   C210.377,375.141,225.973,389.496,244.709,389.496z"/><path d="M244.709,410.908c-21.684,0-39.256,17.571-39.256,39.256c0,21.683,17.572,39.254,39.256,39.254   s39.256-17.571,39.256-39.254C283.965,428.479,266.393,410.908,244.709,410.908z"/></g><g transform="matrix(0.10045601759013198 0.02954588635418594 -0.02954588635418594 0.10045601759013198 116.83378494405513 239.71202350450338)" id="L1_11"><path d="M298.761,307.01c-6.017,0-10.894,4.877-10.894,10.894c0,29.65-6.517,57.837-17.88,77.336    c-6.879,11.805-12.932,15.773-14.514,16.361c-5.773,0.274-10.367,5.042-10.367,10.882c0,6.017,4.877,10.894,10.894,10.894    c10.633,0,22.899-10.156,32.813-27.166c13.246-22.73,20.843-54.916,20.843-88.306C309.654,311.887,304.777,307.01,298.761,307.01z    "/><path d="M479.725,174.224c-21.643-30.985-50.803-48.048-82.108-48.048c-2.096,0-4.178,0.103-6.252,0.256    c-18.8-17.881-41.073-27.49-64.557-27.49c-13.213,0-26.038,3.059-38.082,8.906c-4.083-46.701-30.415-64.163-46.295-70.471    c-8.114-3.222-16.995-3.094-25.011,0.363c-8.016,3.458-14.205,9.83-17.428,17.943c-3.222,8.112-3.094,16.995,0.364,25.01    c3.458,8.014,9.829,14.205,17.859,17.387c0.776,0.489,2.519,3.081,3.876,9.198c-11.7-5.478-24.12-8.336-36.901-8.336    c-23.483,0-45.755,9.609-64.557,27.49c-2.074-0.153-4.156-0.256-6.252-0.256c-31.305,0-60.465,17.064-82.108,48.048    C11.461,204.019,0,243.439,0,285.223c0,41.784,11.461,81.203,32.275,110.998c21.643,30.985,50.803,48.048,82.108,48.048    c5.889,0,11.698-0.626,17.398-1.814c16.215,11.862,34.416,18.154,53.41,18.154c7.982,0,15.82-1.135,23.432-3.305    c14.221,12.834,30.39,19.646,47.376,19.646c16.986,0,33.156-6.812,47.376-19.646c7.614,2.17,15.45,3.305,23.432,3.305    c18.994,0,37.195-6.292,53.41-18.154c5.701,1.187,11.51,1.814,17.398,1.814c31.305,0,60.465-17.064,82.108-48.048    C500.539,366.426,512,327.006,512,285.223C512,243.439,500.539,204.018,479.725,174.224z M288.91,132.861    c11.81-7.943,24.675-12.132,37.898-12.132c13.186,0,26.013,4.179,37.794,12.077c-7.058,2.914-13.877,6.755-20.374,11.506    c-5.706-1.189-11.524-1.795-17.419-1.795c-13.738,0-27.055,3.311-39.512,9.617C287.939,146.247,288.541,139.577,288.91,132.861z     M220.363,72.062c-1.153-2.672-1.195-5.632-0.12-8.337c1.074-2.704,3.136-4.828,5.808-5.981c1.385-0.597,2.848-0.897,4.312-0.897    c1.361,0,2.722,0.258,4.025,0.776c11.755,4.67,31.678,18.47,33.033,58.436c0.48,14.163-1.541,32.842-2.931,43.383    c-2.804-0.381-5.634-0.585-8.489-0.585c-4.538,0-9.016,0.498-13.415,1.454c2.028-9.132,3.743-25.341,2.91-41.012    c-1.219-22.925-7.661-36.863-19.151-41.427C223.639,76.797,221.515,74.734,220.363,72.062z M185.192,120.729    c13.49,0,26.603,4.375,38.606,12.631c-0.245,6.495-0.856,12.696-1.613,17.543c-11.728-5.505-24.178-8.387-36.994-8.387    c-5.895,0-11.712,0.606-17.419,1.795c-6.497-4.751-13.316-8.592-20.374-11.506C159.181,124.908,172.007,120.729,185.192,120.729z     M50.136,383.744c-18.281-26.171-28.348-61.159-28.348-98.522c0-37.362,10.068-72.352,28.348-98.522    c17.449-24.98,40.266-38.738,64.247-38.738c9.414,0,18.648,2.126,27.449,6.214c-14.423,8.143-27.587,20.408-38.749,36.387    C82.27,220.36,70.809,259.779,70.809,301.563c0,41.784,11.461,81.203,32.275,110.998c2.404,3.442,4.906,6.702,7.489,9.797    C87.994,420.98,66.658,407.397,50.136,383.744z M185.191,438.823c-23.981,0-46.798-13.758-64.247-38.738    c-18.281-26.171-28.348-61.159-28.348-98.522c0-37.362,10.068-72.352,28.348-98.522c17.449-24.98,40.266-38.738,64.247-38.738    c10.717,0,21.198,2.757,31.074,8.028c-11.454,8.243-21.87,20.131-30.725,35.328c-17.262,29.622-26.769,68.775-26.769,110.244    c0,41.471,9.507,80.623,26.769,110.246c2.109,3.619,4.311,7.043,6.59,10.282C189.831,438.69,187.517,438.823,185.191,438.823z     M256,455.163c-19.023,0-37.362-13.491-51.636-37.984c-15.351-26.343-23.806-61.6-23.806-99.276s8.455-72.932,23.806-99.275    c14.275-24.494,32.612-37.985,51.636-37.985s37.362,13.49,51.637,37.985c15.351,26.343,23.806,61.599,23.806,99.275    c0,37.676-8.455,72.933-23.806,99.276C293.362,441.673,275.025,455.163,256,455.163z M391.056,400.085    c-17.449,24.98-40.266,38.738-64.247,38.738c-2.325,0-4.638-0.134-6.937-0.391c2.279-3.241,4.481-6.664,6.59-10.282    c17.262-29.622,26.769-68.775,26.769-110.246c0-41.471-9.507-80.623-26.769-110.245c-8.855-15.197-19.273-27.084-30.725-35.328    c9.876-5.27,20.357-8.027,31.074-8.027c23.981,0,46.798,13.758,64.247,38.738c18.279,26.17,28.347,61.159,28.347,98.522    S409.336,373.915,391.056,400.085z M461.864,383.744c-16.522,23.653-37.858,37.235-60.437,38.614    c2.583-3.094,5.085-6.354,7.489-9.797c20.813-29.795,32.275-69.215,32.275-110.998s-11.461-81.203-32.275-110.998    c-11.162-15.979-24.325-28.244-38.749-36.387c8.801-4.087,18.034-6.214,27.449-6.214c23.981,0,46.798,13.758,64.247,38.738    c18.281,26.169,28.349,61.158,28.349,98.521S480.145,357.574,461.864,383.744z"/></g></defs><g fi:class="KUsePattern" opacity="0.76"><pattern id="pattern_L1_3" width="350" height="350" patternUnits="userSpaceOnUse"><use xlink:href="#L1_3" x="-350" y="-350"/><use xlink:href="#L1_3" x="0" y="-350"/><use xlink:href="#L1_3" x="350" y="-350"/><use xlink:href="#L1_3" x="-350" y="0"/><use xlink:href="#L1_3" x="0" y="0"/><use xlink:href="#L1_3" x="350" y="0"/><use xlink:href="#L1_3" x="-350" y="350"/><use xlink:href="#L1_3" x="0" y="350"/><use xlink:href="#L1_3" x="350" y="350"/></pattern><rect x="0" y="0" width="100%" height="100%" fill="url(#pattern_L1_3)"/></g><g fi:class="KUsePattern" opacity="0.77"><pattern id="pattern_L1_4" width="350" height="350" patternUnits="userSpaceOnUse"><use xlink:href="#L1_4" x="-350" y="-350"/><use xlink:href="#L1_4" x="0" y="-350"/><use xlink:href="#L1_4" x="350" y="-350"/><use xlink:href="#L1_4" x="-350" y="0"/><use xlink:href="#L1_4" x="0" y="0"/><use xlink:href="#L1_4" x="350" y="0"/><use xlink:href="#L1_4" x="-350" y="350"/><use xlink:href="#L1_4" x="0" y="350"/><use xlink:href="#L1_4" x="350" y="350"/></pattern><rect x="0" y="0" width="100%" height="100%" fill="url(#pattern_L1_4)"/></g><g fi:class="KUsePattern" opacity="0.69"><pattern id="pattern_L1_9" width="350" height="350" patternUnits="userSpaceOnUse"><use xlink:href="#L1_9" x="-350" y="-350"/><use xlink:href="#L1_9" x="0" y="-350"/><use xlink:href="#L1_9" x="350" y="-350"/><use xlink:href="#L1_9" x="-350" y="0"/><use xlink:href="#L1_9" x="0" y="0"/><use xlink:href="#L1_9" x="350" y="0"/><use xlink:href="#L1_9" x="-350" y="350"/><use xlink:href="#L1_9" x="0" y="350"/><use xlink:href="#L1_9" x="350" y="350"/></pattern><rect x="0" y="0" width="100%" height="100%" fill="url(#pattern_L1_9)"/></g><g fi:class="KUsePattern"><pattern id="pattern_L1_8" width="350" height="350" patternUnits="userSpaceOnUse"><use xlink:href="#L1_8" x="-350" y="-350"/><use xlink:href="#L1_8" x="0" y="-350"/><use xlink:href="#L1_8" x="350" y="-350"/><use xlink:href="#L1_8" x="-350" y="0"/><use xlink:href="#L1_8" x="0" y="0"/><use xlink:href="#L1_8" x="350" y="0"/><use xlink:href="#L1_8" x="-350" y="350"/><use xlink:href="#L1_8" x="0" y="350"/><use xlink:href="#L1_8" x="350" y="350"/></pattern><rect x="0" y="0" width="100%" height="100%" fill="url(#pattern_L1_8)"/></g><g fi:class="KUsePattern" opacity="0.75"><pattern id="pattern_L1_10" width="350" height="350" patternUnits="userSpaceOnUse"><use xlink:href="#L1_10" x="-350" y="-350"/><use xlink:href="#L1_10" x="0" y="-350"/><use xlink:href="#L1_10" x="350" y="-350"/><use xlink:href="#L1_10" x="-350" y="0"/><use xlink:href="#L1_10" x="0" y="0"/><use xlink:href="#L1_10" x="350" y="0"/><use xlink:href="#L1_10" x="-350" y="350"/><use xlink:href="#L1_10" x="0" y="350"/><use xlink:href="#L1_10" x="350" y="350"/></pattern><rect x="0" y="0" width="100%" height="100%" fill="url(#pattern_L1_10)"/></g><g fi:class="KUsePattern" opacity="0.75"><pattern id="pattern_L1_6" width="350" height="350" patternUnits="userSpaceOnUse"><use xlink:href="#L1_6" x="-350" y="-350"/><use xlink:href="#L1_6" x="0" y="-350"/><use xlink:href="#L1_6" x="350" y="-350"/><use xlink:href="#L1_6" x="-350" y="0"/><use xlink:href="#L1_6" x="0" y="0"/><use xlink:href="#L1_6" x="350" y="0"/><use xlink:href="#L1_6" x="-350" y="350"/><use xlink:href="#L1_6" x="0" y="350"/><use xlink:href="#L1_6" x="350" y="350"/></pattern><rect x="0" y="0" width="100%" height="100%" fill="url(#pattern_L1_6)"/></g><g fi:class="KUsePattern"><pattern id="pattern_L1_11" width="350" height="350" patternUnits="userSpaceOnUse"><use xlink:href="#L1_11" x="-350" y="-350"/><use xlink:href="#L1_11" x="0" y="-350"/><use xlink:href="#L1_11" x="350" y="-350"/><use xlink:href="#L1_11" x="-350" y="0"/><use xlink:href="#L1_11" x="0" y="0"/><use xlink:href="#L1_11" x="350" y="0"/><use xlink:href="#L1_11" x="-350" y="350"/><use xlink:href="#L1_11" x="0" y="350"/><use xlink:href="#L1_11" x="350" y="350"/></pattern><rect x="0" y="0" width="100%" height="100%" fill="url(#pattern_L1_11)"/></g></svg>